<svg width="17" height="15" viewBox="0 0 17 15" xmlns="http://www.w3.org/2000/svg">
<path d="M7.35606 1.11374L8.1391 0.402039C8.47066 0.100688 9.0068 0.100688 9.33483 0.402039L16.1917 6.63103C16.5233 6.93238 16.5233 7.41967 16.1917 7.71782L9.33483 13.95C9.00327 14.2514 8.46713 14.2514 8.1391 13.95L7.35606 13.2383C7.02098 12.9338 7.02803 12.4368 7.37017 12.1387L11.6205 8.45837H1.48325C1.01413 8.45837 0.636719 8.11534 0.636719 7.68896V6.66309C0.636719 6.23671 1.01413 5.89368 1.48325 5.89368H11.6205L7.37017 2.21335C7.0245 1.91521 7.01745 1.4183 7.35606 1.11374Z"/>
</svg>
