<svg width="19" height="17" viewBox="0 0 19 17" xmlns="http://www.w3.org/2000/svg">
<path d="M8.31597 1.33632L9.21087 0.522949C9.5898 0.178548 10.2025 0.178548 10.5774 0.522949L18.4139 7.6418C18.7928 7.9862 18.7928 8.5431 18.4139 8.88384L10.5774 16.0063C10.1985 16.3507 9.58577 16.3507 9.21087 16.0063L8.31597 15.193C7.93301 14.8449 7.94108 14.277 8.33209 13.9363L13.1896 9.73019H1.60418C1.06805 9.73019 0.636719 9.33816 0.636719 8.85086V7.67843C0.636719 7.19114 1.06805 6.79911 1.60418 6.79911H13.1896L8.33209 2.59302C7.93705 2.25228 7.92898 1.68439 8.31597 1.33632Z"/>
</svg>
