<svg width="17" height="19" viewBox="0 0 17 19" fill="none" xmlns="http://www.w3.org/2000/svg">
<g opacity="0.7" clip-path="url(#clip0)">
<path d="M0 17.052C0 17.9836 0.791853 18.7395 1.76786 18.7395H14.7321C15.7081 18.7395 16.5 17.9836 16.5 17.052V7.4895H0V17.052ZM11.7857 10.1614C11.7857 9.92935 11.9846 9.7395 12.2277 9.7395H13.7009C13.944 9.7395 14.1429 9.92935 14.1429 10.1614V11.5676C14.1429 11.7997 13.944 11.9895 13.7009 11.9895H12.2277C11.9846 11.9895 11.7857 11.7997 11.7857 11.5676V10.1614ZM11.7857 14.6614C11.7857 14.4293 11.9846 14.2395 12.2277 14.2395H13.7009C13.944 14.2395 14.1429 14.4293 14.1429 14.6614V16.0676C14.1429 16.2997 13.944 16.4895 13.7009 16.4895H12.2277C11.9846 16.4895 11.7857 16.2997 11.7857 16.0676V14.6614ZM7.07143 10.1614C7.07143 9.92935 7.27031 9.7395 7.51339 9.7395H8.98661C9.22969 9.7395 9.42857 9.92935 9.42857 10.1614V11.5676C9.42857 11.7997 9.22969 11.9895 8.98661 11.9895H7.51339C7.27031 11.9895 7.07143 11.7997 7.07143 11.5676V10.1614ZM7.07143 14.6614C7.07143 14.4293 7.27031 14.2395 7.51339 14.2395H8.98661C9.22969 14.2395 9.42857 14.4293 9.42857 14.6614V16.0676C9.42857 16.2997 9.22969 16.4895 8.98661 16.4895H7.51339C7.27031 16.4895 7.07143 16.2997 7.07143 16.0676V14.6614ZM2.35714 10.1614C2.35714 9.92935 2.55603 9.7395 2.79911 9.7395H4.27232C4.5154 9.7395 4.71429 9.92935 4.71429 10.1614V11.5676C4.71429 11.7997 4.5154 11.9895 4.27232 11.9895H2.79911C2.55603 11.9895 2.35714 11.7997 2.35714 11.5676V10.1614ZM2.35714 14.6614C2.35714 14.4293 2.55603 14.2395 2.79911 14.2395H4.27232C4.5154 14.2395 4.71429 14.4293 4.71429 14.6614V16.0676C4.71429 16.2997 4.5154 16.4895 4.27232 16.4895H2.79911C2.55603 16.4895 2.35714 16.2997 2.35714 16.0676V14.6614ZM14.7321 2.9895H12.9643V1.302C12.9643 0.992627 12.6991 0.739502 12.375 0.739502H11.1964C10.8723 0.739502 10.6071 0.992627 10.6071 1.302V2.9895H5.89286V1.302C5.89286 0.992627 5.62768 0.739502 5.30357 0.739502H4.125C3.80089 0.739502 3.53571 0.992627 3.53571 1.302V2.9895H1.76786C0.791853 2.9895 0 3.74536 0 4.677V6.3645H16.5V4.677C16.5 3.74536 15.7081 2.9895 14.7321 2.9895Z" fill="#395676"/>
</g>
<defs>
<clipPath id="clip0">
<rect width="16.5" height="18" fill="white" transform="translate(0 0.739502)"/>
</clipPath>
</defs>
</svg>
