<svg width="22" height="22" viewBox="0 0 22 22" fill="none" xmlns="http://www.w3.org/2000/svg">
<path d="M11.0041 5.60928C7.88087 5.60928 5.36167 8.01397 5.36167 10.9952C5.36167 13.9765 7.88087 16.3812 11.0041 16.3812C14.1273 16.3812 16.6465 13.9765 16.6465 10.9952C16.6465 8.01397 14.1273 5.60928 11.0041 5.60928ZM11.0041 14.4968C8.98579 14.4968 7.33578 12.9265 7.33578 10.9952C7.33578 9.06397 8.98087 7.49366 11.0041 7.49366C13.0273 7.49366 14.6724 9.06397 14.6724 10.9952C14.6724 12.9265 13.0224 14.4968 11.0041 14.4968ZM18.1934 5.38897C18.1934 6.08741 17.6041 6.64522 16.8773 6.64522C16.1456 6.64522 15.5612 6.08272 15.5612 5.38897C15.5612 4.69522 16.1505 4.13272 16.8773 4.13272C17.6041 4.13272 18.1934 4.69522 18.1934 5.38897ZM21.9304 6.66397C21.847 4.98116 21.4443 3.49053 20.1528 2.2624C18.8662 1.03428 17.3045 0.649902 15.5416 0.565527C13.7246 0.46709 8.27864 0.46709 6.46167 0.565527C4.70364 0.645215 3.14203 1.02959 1.85051 2.25772C0.558989 3.48584 0.16122 4.97647 0.0728272 6.65928C-0.0302979 8.39366 -0.0302979 13.5921 0.0728272 15.3265C0.15631 17.0093 0.558989 18.4999 1.85051 19.728C3.14203 20.9562 4.69873 21.3405 6.46167 21.4249C8.27864 21.5234 13.7246 21.5234 15.5416 21.4249C17.3045 21.3452 18.8662 20.9609 20.1528 19.728C21.4394 18.4999 21.8421 17.0093 21.9304 15.3265C22.0336 13.5921 22.0336 8.39835 21.9304 6.66397ZM19.5831 17.1874C19.2001 18.1062 18.4586 18.814 17.4912 19.1843C16.0425 19.7327 12.605 19.6062 11.0041 19.6062C9.4032 19.6062 5.96078 19.728 4.51703 19.1843C3.55453 18.8187 2.81301 18.1109 2.42506 17.1874C1.85051 15.8046 1.9831 12.5233 1.9831 10.9952C1.9831 9.4671 1.85542 6.18116 2.42506 4.80303C2.8081 3.88428 3.54962 3.17647 4.51703 2.80615C5.96569 2.25772 9.4032 2.38428 11.0041 2.38428C12.605 2.38428 16.0474 2.2624 17.4912 2.80615C18.4537 3.17178 19.1952 3.87959 19.5831 4.80303C20.1577 6.18584 20.0251 9.4671 20.0251 10.9952C20.0251 12.5233 20.1577 15.8093 19.5831 17.1874Z" fill="#88DBDF"/>
</svg>
