<svg width="19" height="18" viewBox="0 0 19 18" xmlns="http://www.w3.org/2000/svg">
<path d="M4.77096 17.5001H0.970064V5.8165H4.77096V17.5001ZM2.86846 4.22275C1.65306 4.22275 0.667236 3.26181 0.667236 2.10166C0.667236 1.54439 0.899151 1.00995 1.31196 0.615907C1.72477 0.221861 2.28466 0.000488281 2.86846 0.000488281C3.45227 0.000488281 4.01216 0.221861 4.42497 0.615907C4.83778 1.00995 5.06969 1.54439 5.06969 2.10166C5.06969 3.26181 4.08346 4.22275 2.86846 4.22275ZM18.9965 17.5001H15.2038V11.8126C15.2038 10.4571 15.1751 8.71884 13.2276 8.71884C11.2515 8.71884 10.9486 10.1915 10.9486 11.7149V17.5001H7.15183V5.8165H10.7972V7.41025H10.8504C11.3579 6.49228 12.5974 5.52353 14.4467 5.52353C18.2934 5.52353 19.0006 7.9415 19.0006 11.0821V17.5001H18.9965Z" />
</svg>
