<svg width="15" height="17" viewBox="0 0 15 17" fill="none" xmlns="http://www.w3.org/2000/svg">
<path d="M7.33333 9.5C9.61068 9.5 11.4583 7.48438 11.4583 5C11.4583 2.51562 9.61068 0.5 7.33333 0.5C5.05599 0.5 3.20833 2.51562 3.20833 5C3.20833 7.48438 5.05599 9.5 7.33333 9.5ZM11 10.5H9.42161C8.78568 10.8188 8.07812 11 7.33333 11C6.58854 11 5.88385 10.8188 5.24505 10.5H3.66667C1.64141 10.5 0 12.2906 0 14.5V15C0 15.8281 0.615885 16.5 1.375 16.5H13.2917C14.0508 16.5 14.6667 15.8281 14.6667 15V14.5C14.6667 12.2906 13.0253 10.5 11 10.5Z" fill="#395676"/>
</svg>
