<svg width="19" height="21" viewBox="0 0 19 21" fill="none" xmlns="http://www.w3.org/2000/svg">
<path d="M17.8102 14.9772L13.7998 13.1022C13.6285 13.0225 13.438 13.0057 13.2572 13.0543C13.0764 13.103 12.9149 13.2143 12.7972 13.3717L11.0211 15.7389C8.2338 14.3052 5.99063 11.8581 4.67643 8.81741L6.84635 6.87991C6.9909 6.75166 7.09321 6.57553 7.13779 6.37817C7.18237 6.18082 7.1668 5.973 7.09342 5.78616L5.37467 1.41117C5.29415 1.20977 5.15173 1.04533 4.97197 0.946208C4.79221 0.847088 4.58638 0.8195 4.38997 0.8682L0.666016 1.8057C0.476656 1.8534 0.307708 1.96971 0.186748 2.13565C0.065787 2.30159 -4.36208e-05 2.50736 2.16856e-08 2.71937C2.16856e-08 12.7389 7.44434 20.8443 16.6146 20.8443C16.809 20.8445 16.9977 20.7727 17.1499 20.6407C17.3021 20.5088 17.4087 20.3244 17.4525 20.1178L18.3118 16.0553C18.3562 15.84 18.3304 15.6145 18.2388 15.4178C18.1473 15.221 17.9957 15.0652 17.8102 14.9772Z" fill="#395676"/>
</svg>
