<svg width="132" height="108" viewBox="0 0 132 108" fill="none" xmlns="http://www.w3.org/2000/svg">
<path d="M131.918 10.6641C119.806 19.8799 111.117 28.7008 105.851 37.1267C100.848 45.2893 98.3463 54.3735 98.3463 64.3793C101.769 62.2729 105.719 61.2196 110.195 61.2196C116.251 61.2196 121.123 63.3261 124.809 67.539C128.759 71.4887 130.733 76.6233 130.733 82.9427C130.733 90.0521 128.232 95.8449 123.229 100.321C118.49 104.797 112.038 107.036 103.876 107.036C85.1808 107.036 75.8333 94.66 75.8333 69.9088C75.8333 63.3261 76.6233 57.27 78.2031 51.7404C79.783 45.9476 82.2844 40.4181 85.7075 35.1519C89.3938 29.6224 94.265 24.0929 100.321 18.5634C106.377 12.7705 113.882 6.58275 122.834 0L131.918 10.6641ZM56.0851 10.6641C43.9728 19.8799 35.2836 28.7008 30.0174 37.1267C25.0145 45.2893 22.513 54.3735 22.513 64.3793C25.936 62.2729 29.8857 61.2196 34.362 61.2196C40.4181 61.2196 45.2893 63.3261 48.9757 67.539C52.9253 71.4887 54.9002 76.6233 54.9002 82.9427C54.9002 90.0521 52.3987 95.8449 47.3958 100.321C42.6562 104.797 36.2051 107.036 28.0425 107.036C9.34751 107.036 0 94.66 0 69.9088C0 63.3261 0.789931 57.27 2.36979 51.7404C3.94965 45.9476 6.4511 40.4181 9.87413 35.1519C13.5605 29.6224 18.4317 24.0929 24.4878 18.5634C30.544 12.7705 38.0483 6.58275 47.0009 0L56.0851 10.6641Z" fill="#D4FAFD"/>
</svg>
