<svg width="19" height="18" viewBox="0 0 19 18" xmlns="http://www.w3.org/2000/svg">
<path d="M16.7828 4.92638C16.7944 5.10403 16.7944 5.28173 16.7944 5.45938C16.7944 10.8781 13.0138 17.1218 6.10386 17.1218C3.97505 17.1218 1.99748 16.4492 0.333984 15.2817C0.636449 15.3198 0.92724 15.3325 1.24134 15.3325C2.99787 15.3325 4.61485 14.6853 5.9061 13.5812C4.25424 13.5431 2.86993 12.3629 2.39298 10.7386C2.62565 10.7766 2.85829 10.802 3.1026 10.802C3.43994 10.802 3.77732 10.7512 4.09139 10.6624C2.36974 10.2817 1.07845 8.63196 1.07845 6.63958V6.58884C1.57865 6.89341 2.16034 7.08376 2.77683 7.10911C1.76477 6.37306 1.10173 5.11673 1.10173 3.6954C1.10173 2.93399 1.28782 2.23603 1.61356 1.62688C3.46318 4.11419 6.24344 5.73853 9.361 5.91622C9.30285 5.61165 9.26794 5.29442 9.26794 4.97716C9.26794 2.71825 10.9431 0.878174 13.0253 0.878174C14.1072 0.878174 15.0843 1.3731 15.7707 2.17259C16.6199 1.99493 17.4342 1.65228 18.1554 1.18274C17.8762 2.13454 17.2829 2.93403 16.5036 3.44161C17.2597 3.35282 17.9926 3.12435 18.6672 2.80712C18.1555 3.61927 17.5156 4.34259 16.7828 4.92638Z" />
</svg>
