<svg width="22" height="24" viewBox="0 0 22 24" fill="none" xmlns="http://www.w3.org/2000/svg">
<path d="M14.9254 7.5C14.2823 3.31406 12.7653 0.375 11 0.375C9.23468 0.375 7.71774 3.31406 7.0746 7.5H14.9254ZM6.74194 12C6.74194 13.0406 6.79516 14.0391 6.88831 15H15.1073C15.2004 14.0391 15.2536 13.0406 15.2536 12C15.2536 10.9594 15.2004 9.96094 15.1073 9H6.88831C6.79516 9.96094 6.74194 10.9594 6.74194 12ZM21.144 7.5C19.8754 4.31719 17.3073 1.85625 14.1359 0.8625C15.2181 2.44687 15.9633 4.83281 16.3536 7.5H21.144ZM7.85968 0.8625C4.69274 1.85625 2.12016 4.31719 0.856048 7.5H5.64637C6.03226 4.83281 6.77742 2.44687 7.85968 0.8625ZM21.6185 9H16.531C16.6242 9.98438 16.6774 10.9922 16.6774 12C16.6774 13.0078 16.6242 14.0156 16.531 15H21.6141C21.8581 14.0391 21.9956 13.0406 21.9956 12C21.9956 10.9594 21.8581 9.96094 21.6185 9ZM5.32258 12C5.32258 10.9922 5.37581 9.98438 5.46895 9H0.381452C0.141935 9.96094 0 10.9594 0 12C0 13.0406 0.141935 14.0391 0.381452 15H5.46452C5.37581 14.0156 5.32258 13.0078 5.32258 12ZM7.0746 16.5C7.71774 20.6859 9.23468 23.625 11 23.625C12.7653 23.625 14.2823 20.6859 14.9254 16.5H7.0746ZM14.1403 23.1375C17.3073 22.1438 19.8798 19.6828 21.1484 16.5H16.3581C15.9677 19.1672 15.2226 21.5531 14.1403 23.1375ZM0.856048 16.5C2.1246 19.6828 4.69274 22.1438 7.86411 23.1375C6.78185 21.5531 6.03669 19.1672 5.64637 16.5H0.856048Z" fill="#395676"/>
</svg>
