<svg width="401" height="531" viewBox="0 0 401 531" fill="none" xmlns="http://www.w3.org/2000/svg">
<path fill-rule="evenodd" clip-rule="evenodd" d="M385.219 -116.457C416.269 -62.2704 397.649 6.54967 343.899 36.9573C331.23 44.243 317.767 48.8126 304.186 50.851C304.295 51.148 304.402 51.4454 304.509 51.7433C272.91 57.8759 243.944 76.2736 226.389 106.061C209.324 135.016 207.189 168.11 216.758 198.102C239.355 250.432 219.65 312.259 169.399 340.686C114.93 372.012 45.8416 353.386 15.3874 299.354C-15.8249 244.885 2.89233 175.705 56.9234 145.138C68.164 138.491 80.078 134.05 92.1773 131.684C92.1493 131.611 92.1214 131.539 92.0936 131.467C125.448 127.087 156.169 107.813 173.724 76.2737C193.035 44.7346 193.913 7.93901 181.624 -22.724C181.79 -22.7476 181.955 -22.7708 182.121 -22.7937C164.236 -73.2432 184.262 -130.563 232.008 -157.574C285.44 -189.172 354.169 -170.644 385.219 -116.457Z" fill="#D4FAFD"/>
<path fill-rule="evenodd" clip-rule="evenodd" d="M15.0352 185.445C-16.0148 239.632 2.60501 308.452 56.3552 338.86C69.0236 346.145 82.4868 350.715 96.0681 352.753C95.9592 353.05 95.8514 353.348 95.7449 353.646C127.344 359.778 156.31 378.176 173.865 407.963C190.929 436.918 193.065 470.013 183.496 500.004C160.899 552.334 180.604 614.161 230.855 642.589C285.324 673.915 354.412 655.289 384.866 601.257C416.079 546.787 397.361 477.607 343.33 447.041C332.09 440.393 320.176 435.953 308.077 433.586C308.104 433.514 308.132 433.441 308.16 433.369C274.806 428.989 244.084 409.715 226.53 378.176C207.219 346.637 206.341 309.841 218.63 279.178C218.54 279.166 218.451 279.153 218.361 279.14C218.285 279.13 218.209 279.119 218.133 279.109C236.017 228.659 215.992 171.339 168.246 144.328C114.814 112.73 46.0851 131.259 15.0352 185.445Z" fill="#D4FAFD"/>
</svg>
