<svg width="2017" height="1295" viewBox="0 0 2017 1295" fill="none" xmlns="http://www.w3.org/2000/svg">
<path d="M1178.89 767.223C1171.31 747.553 1156.91 730.153 1137.2 718.806C1115.98 706.701 1092.48 703.675 1070.5 707.458C1079.6 733.179 1078.08 763.44 1063.68 789.161C1049.28 814.883 1023.51 831.526 996.98 836.822C1004.56 858.004 1018.96 876.161 1040.18 888.265C1059.89 899.613 1081.87 903.395 1103.09 900.369C1092.48 873.891 1093.24 842.117 1109.16 815.639C1125.07 789.161 1150.84 771.005 1178.89 767.223Z" fill="#EAF1F8"/>
<path d="M98.0825 503.46C151.897 503.46 195.858 459.582 195.858 405.87C195.858 352.158 151.897 308.28 98.0825 308.28C44.2679 308.28 0.306641 352.158 0.306641 405.87C0.306641 460.339 44.2679 504.217 98.0825 503.46Z" fill="#EAF1F8"/>
<path d="M326.985 469.417C339.87 452.774 348.208 431.592 348.208 408.896C348.208 384.688 339.113 362.749 324.711 346.105C306.521 367.288 279.992 380.905 250.432 380.905C220.872 380.905 193.586 367.288 176.153 346.862C161.752 364.262 152.656 386.201 152.656 410.409C152.656 433.105 160.994 454.287 173.879 470.93C192.07 448.235 219.356 433.861 250.432 433.861C281.508 432.348 308.794 446.722 326.985 469.417Z" fill="#EAF1F8"/>
<path d="M402.432 503.46C456.247 503.46 500.208 459.582 500.208 405.87C500.208 352.158 456.247 308.28 402.432 308.28C348.617 308.28 304.656 352.158 304.656 405.87C304.656 460.339 348.617 504.217 402.432 503.46Z" fill="#EAF1F8"/>
<path d="M631.333 469.417C644.218 452.774 652.556 431.592 652.556 408.896C652.556 384.688 643.46 362.749 629.059 346.105C610.868 367.288 584.34 380.905 554.78 380.905C525.22 380.905 497.933 367.288 480.5 346.862C466.099 364.262 457.004 386.201 457.004 410.409C457.004 433.105 465.341 454.287 478.227 470.93C496.417 448.235 523.704 433.861 554.78 433.861C585.856 432.348 613.142 446.722 631.333 469.417Z" fill="#EAF1F8"/>
<path d="M706.819 503.46C760.633 503.46 804.595 459.582 804.595 405.87C804.595 352.158 760.633 308.28 706.819 308.28C653.004 308.28 609.043 352.158 609.043 405.87C609.043 460.339 653.004 504.217 706.819 503.46Z" fill="#EAF1F8"/>
<path d="M935.722 469.417C948.607 452.774 956.944 431.592 956.944 408.896C956.944 384.688 947.849 362.749 933.448 346.105C915.257 367.288 888.729 380.905 859.168 380.905C829.608 380.905 802.322 367.288 784.889 346.862C770.488 364.262 761.393 386.201 761.393 410.409C761.393 433.105 769.73 454.287 782.615 470.93C800.806 448.235 828.092 433.861 859.168 433.861C890.244 432.348 917.531 446.722 935.722 469.417Z" fill="#EAF1F8"/>
<path d="M1550.42 620.72C1523.13 573.816 1463.26 557.93 1417.02 585.164C1370.03 612.399 1354.11 672.163 1381.4 718.311C1408.68 765.214 1468.56 781.101 1514.8 753.867C1561.79 727.389 1577.71 667.624 1550.42 620.72Z" fill="#EAF1F8"/>
<path d="M1406.41 440.67C1385.19 437.644 1363.21 441.426 1343.5 452.774C1322.28 464.878 1307.88 483.791 1300.3 504.973C1327.58 510.269 1352.6 526.156 1367.75 551.877C1382.91 577.599 1384.43 607.103 1375.33 633.581C1397.31 637.363 1420.81 634.337 1442.03 622.233C1461.74 610.885 1476.14 593.486 1483.72 573.816C1454.92 570.034 1428.39 553.39 1413.23 526.156C1396.56 498.921 1395.8 467.148 1406.41 440.67Z" fill="#EAF1F8"/>
<path d="M1254.82 178.159C1233.6 175.133 1211.62 178.916 1191.91 190.264C1170.69 202.368 1156.28 221.281 1148.71 242.463C1175.99 247.759 1201 263.645 1216.16 289.367C1231.32 315.088 1232.84 344.592 1223.74 371.07C1245.72 374.853 1269.22 371.827 1290.44 359.723C1310.15 348.375 1324.55 330.975 1332.13 311.306C1303.33 307.523 1276.8 290.88 1261.64 263.645C1244.97 236.411 1244.21 205.394 1254.82 178.159Z" fill="#EAF1F8"/>
<path d="M1242.69 201.611C1273.77 157.733 1263.16 96.4558 1219.2 65.4387C1175.23 34.4216 1113.84 45.0129 1082.76 88.8907C1051.69 132.768 1062.3 194.046 1106.26 225.063C1150.22 256.08 1210.86 245.489 1242.69 201.611Z" fill="#EAF1F8"/>
<path d="M731.901 1030.22C724.321 1010.55 709.92 993.153 690.213 981.806C668.991 969.701 645.494 966.675 623.514 970.458C632.609 996.179 631.093 1026.44 616.692 1052.16C602.291 1077.88 576.521 1094.53 549.992 1099.82C557.572 1121 571.973 1139.16 593.195 1151.26C612.902 1162.61 634.883 1166.4 656.105 1163.37C645.494 1136.89 646.252 1105.12 662.169 1078.64C678.086 1052.16 703.856 1034.01 731.901 1030.22Z" fill="#EAF1F8"/>
<path d="M469.764 434.339C464.128 429.364 457.083 430.312 449.099 431.496C442.759 432.918 432.192 438.367 423.973 438.367C415.754 438.367 406.596 431.496 396.968 431.496C387.34 431.496 377.478 438.367 368.789 438.367C359.866 438.367 350.943 432.444 344.837 431.496C338.732 430.549 332.626 430.549 324.173 433.391C321.824 434.102 323.938 440.499 323.938 440.499C323.938 440.499 334.975 435.05 344.602 438.13C354.23 441.209 357.283 444.763 368.554 444.763C379.826 444.763 388.984 438.13 396.733 438.13C404.483 438.13 414.815 444.763 423.973 444.763C434.775 444.763 445.577 437.182 458.023 437.182C459.901 437.419 468.824 440.499 468.824 440.499C468.824 440.499 470.468 435.05 469.764 434.339Z" fill="white"/>
<path d="M335.912 414.913H339.2V410.885H344.601V414.913H347.888V426.758H355.637V415.15H359.16V411.122H364.561V415.15H368.083V426.995H375.128V415.15H377.946V411.122H384.051V414.913H387.339V426.758H396.732V417.282H403.776V426.758H418.336C418.336 426.758 418.336 419.177 418.336 417.282C420.449 414.676 424.206 414.676 424.206 414.676C429.137 414.676 431.016 417.519 431.016 417.519V426.521H433.834C433.834 426.521 433.834 419.888 433.834 417.756C435.478 416.571 438.061 417.045 438.061 417.045L437.826 426.521H445.106C445.106 426.521 445.106 419.414 445.106 417.045C443.697 414.676 437.591 415.387 437.591 415.387V404.489H423.737V390.274H411.291L409.412 350H400.489L398.141 390.037H386.634V403.778H376.067V390.985H359.629V366.347H356.812V390.511H350.471V366.347H347.653V390.748H343.661V403.304H330.746V426.521H335.912V414.913Z" fill="white"/>
<path d="M459.665 416.571C459.665 416.571 458.256 414.202 454.264 414.202C450.272 414.202 448.863 416.808 448.863 416.808V426.284H459.665V416.571Z" fill="white"/>
<g clip-path="url(#clip0)">
<path d="M784.07 371.121C778.127 365.881 770.699 366.879 762.281 368.126C755.595 369.623 744.453 375.362 735.787 375.362C727.121 375.362 717.464 368.126 707.312 368.126C697.161 368.126 686.761 375.362 677.6 375.362C668.191 375.362 658.782 369.124 652.344 368.126C645.907 367.128 639.469 367.128 630.555 370.122C628.079 370.871 630.308 377.608 630.308 377.608C630.308 377.608 641.945 371.869 652.097 375.113C662.249 378.357 665.467 382.099 677.352 382.099C689.237 382.099 698.894 375.113 707.065 375.113C715.236 375.113 726.13 382.099 735.787 382.099C747.177 382.099 758.566 374.115 771.689 374.115C773.67 374.364 783.079 377.608 783.079 377.608C783.079 377.608 784.812 371.869 784.07 371.121Z" fill="white"/>
<path d="M761.043 422.771V426.514H759.805L733.311 399.815L734.302 398.568C734.302 398.568 725.388 389.335 722.664 386.591C724.645 384.595 723.902 381.85 723.902 381.85C723.902 381.85 713.008 377.359 706.818 377.359C700.628 377.359 689.733 382.349 689.733 382.349C689.733 383.846 690.971 385.842 690.971 385.842L678.591 398.069L679.086 399.566L653.335 426.764C653.335 426.764 651.602 426.514 652.097 426.264C652.345 426.015 651.602 422.023 651.602 422.023L637.984 404.057L635.508 405.305C635.508 405.305 646.155 425.017 646.65 425.516C647.145 426.015 649.869 428.51 649.869 428.51C649.869 428.51 648.631 430.506 649.869 432.502C651.107 434.499 654.078 434.748 654.078 434.748V437.992L668.192 456.706C668.192 456.706 670.172 455.957 670.668 455.957C671.163 455.957 660.021 436.495 659.278 434.748C658.535 433.002 656.554 432.752 656.554 432.752V430.756L684.781 405.804L685.771 406.552L698.647 394.575L700.38 395.324V398.817L705.332 398.568C705.332 398.568 705.332 476.418 705.332 479.412C706.818 481.408 708.056 479.412 708.056 479.412V398.817H712.513C712.513 398.817 712.265 396.821 712.513 395.324C713.255 395.324 714.741 394.825 714.741 394.825L726.626 406.802L727.864 405.554L755.843 430.506C755.843 430.506 756.091 431.255 755.843 432.253C755.596 433.251 754.11 433.75 752.872 434.748C751.634 435.746 741.73 455.209 741.73 455.209L744.206 456.207L757.824 437.742V433.75C757.824 433.75 760.3 434.249 762.281 432.253C764.262 430.257 762.776 427.512 762.776 427.512C762.776 427.512 764.757 425.765 765.5 425.266C766.243 424.518 776.642 404.806 776.642 404.806L774.661 403.808L761.043 422.771Z" fill="white"/>
<path d="M721.922 369.623C721.922 369.623 720.436 367.378 718.208 365.881C718.208 362.637 718.208 358.894 718.208 358.894H712.266V350.66H701.123V358.894H694.933V365.881C694.933 365.881 692.705 366.629 691.467 369.374C691.467 369.374 700.628 365.631 706.571 365.631C712.513 365.631 721.922 369.623 721.922 369.623Z" fill="white"/>
</g>
<path d="M1844.68 469.417C1857.57 452.774 1865.91 431.592 1865.91 408.896C1865.91 384.688 1856.81 362.749 1842.41 346.105C1824.22 367.288 1797.69 380.905 1768.13 380.905C1738.57 380.905 1711.28 367.288 1693.85 346.862C1679.45 364.262 1670.36 386.201 1670.36 410.409C1670.36 433.105 1678.69 454.287 1691.58 470.93C1709.77 448.235 1737.06 433.861 1768.13 433.861C1799.21 432.348 1826.49 446.722 1844.68 469.417Z" fill="#EAF1F8"/>
<path d="M1918.83 503.46C1972.65 503.46 2016.61 459.582 2016.61 405.87C2016.61 352.158 1972.65 308.28 1918.83 308.28C1865.02 308.28 1821.05 352.158 1821.05 405.87C1821.05 460.339 1865.02 504.217 1918.83 503.46Z" fill="#EAF1F8"/>
<path d="M1457.19 242.463C1511.01 247.759 1558.76 207.663 1563.3 153.951C1568.61 100.238 1528.44 52.5781 1474.62 48.039C1420.81 42.7434 1373.06 82.8386 1368.51 136.551C1363.96 190.264 1403.38 237.167 1457.19 242.463Z" fill="#3A5675"/>
<g clip-path="url(#clip1)">
<path d="M1468.02 101H1415.02C1413.7 101 1412.82 101.892 1412.82 103.23C1412.82 104.567 1413.7 105.459 1415.02 105.459C1416.56 105.459 1417.66 105.905 1418.32 106.797C1419.86 108.58 1420.08 111.702 1419.86 113.039C1419.86 113.485 1419.42 154.954 1419.42 159.859C1419.42 165.21 1424.7 168.108 1427.77 168.777C1427.99 168.777 1428.21 168.777 1428.43 168.777H1460.32C1466.92 168.777 1469.78 162.311 1469.78 162.089C1470 161.866 1470 161.42 1470 161.197V103.23C1470.22 101.892 1469.12 101 1468.02 101ZM1465.82 160.974C1465.38 161.866 1463.62 164.541 1460.54 164.541H1428.87C1427.77 164.095 1424.04 162.757 1424.04 159.859C1424.04 154.954 1424.48 113.485 1424.48 113.262C1424.48 112.816 1424.92 108.803 1422.94 105.459H1465.82V160.974Z" fill="white"/>
<path d="M1518.16 158.744L1504.96 121.734V109.472C1506.28 109.472 1507.16 108.58 1507.16 107.243C1507.16 105.905 1506.28 105.013 1504.96 105.013H1485.61C1484.29 105.013 1483.41 105.905 1483.41 107.243C1483.41 108.58 1484.29 109.472 1485.61 109.472V122.403C1484.29 126.193 1474.18 153.616 1472.42 159.413C1471.54 162.311 1472.42 164.541 1473.08 165.656C1474.84 168.554 1478.13 169 1478.57 169H1478.79H1511.78C1515.08 169 1516.62 167.662 1517.5 166.325C1519.7 163.426 1518.38 159.19 1518.16 158.744ZM1514.2 163.872C1513.76 164.541 1512.88 164.541 1512 164.541H1479.23C1478.79 164.541 1477.48 164.095 1476.82 163.203C1476.38 162.534 1476.38 161.643 1476.6 160.528C1478.13 154.731 1489.57 123.964 1489.79 123.518C1489.79 123.295 1490.01 123.072 1490.01 122.626V109.249H1500.57V122.18C1500.57 122.403 1500.57 122.626 1500.79 122.849L1514.2 160.082C1514.42 160.974 1514.64 162.98 1514.2 163.872Z" fill="white"/>
<path d="M1499.03 130.652H1490.67L1481.87 157.629C1481.87 157.629 1480.55 162.089 1486.27 162.089C1491.99 162.089 1505.4 162.089 1505.4 162.089C1505.4 162.089 1510.02 161.42 1508.48 157.407C1506.94 153.393 1499.03 130.652 1499.03 130.652ZM1491.11 158.075H1487.15C1486.27 158.075 1485.61 157.184 1485.61 155.846C1485.61 154.508 1486.27 153.616 1487.15 153.616H1491.11C1491.99 153.616 1492.65 154.508 1492.65 155.846C1492.65 157.184 1491.99 158.075 1491.11 158.075ZM1493.09 148.266H1490.45C1489.57 148.266 1488.91 147.374 1488.91 146.036C1488.91 144.698 1489.57 143.807 1490.45 143.807H1493.09C1493.97 143.807 1494.63 144.698 1494.63 146.036C1494.63 147.374 1493.97 148.266 1493.09 148.266ZM1495.29 138.01H1492.43C1491.55 138.01 1490.89 137.118 1490.89 135.78C1490.89 134.443 1491.55 133.551 1492.43 133.551H1495.29C1496.17 133.551 1496.83 134.443 1496.83 135.78C1496.83 137.118 1496.17 138.01 1495.29 138.01Z" fill="white"/>
<path d="M1434.37 124.187H1439.65C1440.97 124.187 1441.85 123.295 1441.85 121.957C1441.85 120.62 1440.97 119.728 1439.65 119.728H1434.37C1433.05 119.728 1432.17 120.62 1432.17 121.957C1432.17 123.295 1433.05 124.187 1434.37 124.187Z" fill="white"/>
<path d="M1432.17 162.534C1436.35 162.534 1457.24 162.534 1457.24 162.534C1457.24 162.534 1461.86 162.311 1461.86 158.075C1461.86 153.839 1461.86 129.092 1461.86 129.092H1428.43V157.407C1428.43 157.407 1427.99 162.534 1432.17 162.534ZM1434.37 131.098H1439.65C1440.97 131.098 1441.85 131.99 1441.85 133.328C1441.85 134.666 1440.97 135.557 1439.65 135.557H1434.37C1433.05 135.557 1432.17 134.666 1432.17 133.328C1432.17 131.99 1433.05 131.098 1434.37 131.098ZM1434.37 142.469H1439.65C1440.97 142.469 1441.85 143.361 1441.85 144.698C1441.85 146.036 1440.97 146.928 1439.65 146.928H1434.37C1433.05 146.928 1432.17 146.036 1432.17 144.698C1432.17 143.361 1433.05 142.469 1434.37 142.469ZM1434.37 154.062H1439.65C1440.97 154.062 1441.85 154.954 1441.85 156.292C1441.85 157.629 1440.97 158.521 1439.65 158.521H1434.37C1433.05 158.521 1432.17 157.629 1432.17 156.292C1432.17 154.954 1433.05 154.062 1434.37 154.062Z" fill="white"/>
</g>
<path d="M1482.96 241.706C1475.38 222.037 1460.98 204.637 1441.28 193.289C1420.05 181.185 1396.56 178.159 1374.58 181.942C1383.67 207.663 1382.16 237.924 1367.75 263.645C1352.6 289.367 1327.58 306.01 1301.05 311.306C1308.63 332.488 1323.04 350.645 1344.26 362.749C1363.96 374.096 1385.95 377.879 1407.17 374.853C1396.56 348.375 1397.31 316.601 1413.23 290.123C1428.39 262.132 1454.92 245.489 1482.96 241.706Z" fill="#69D8DE"/>
<path d="M1542.75 667.5C1536.73 662.182 1529.21 663.195 1520.68 664.461C1513.91 665.981 1502.62 671.805 1493.84 671.805C1485.07 671.805 1475.29 664.461 1465 664.461C1454.72 664.461 1444.19 671.805 1434.91 671.805C1425.38 671.805 1415.85 665.474 1409.33 664.461C1402.8 663.448 1396.53 663.448 1387.51 666.487C1385 667.247 1387.26 674.084 1387.26 674.084C1387.26 674.084 1399.04 668.26 1409.33 671.552C1419.61 674.844 1422.87 678.643 1434.91 678.643C1446.95 678.643 1456.73 671.552 1465 671.552C1473.28 671.552 1484.31 678.643 1494.1 678.643C1505.63 678.643 1517.17 670.539 1530.46 670.539C1532.47 670.792 1542 674.084 1542 674.084C1542 674.084 1543.5 668.26 1542.75 667.5Z" fill="white"/>
<path d="M1434.66 666.74C1439.67 666.74 1444.94 664.714 1450.21 662.688C1450.21 662.435 1450.21 662.182 1450.21 661.675C1450.21 626.474 1494.85 634.325 1494.85 634.325V609.506C1465.26 607.734 1457.98 611.026 1442.68 618.623C1427.38 626.221 1417.6 642.935 1417.6 660.409C1417.6 660.916 1417.6 661.675 1417.6 662.182C1422.87 664.208 1428.89 666.74 1434.66 666.74Z" fill="white"/>
<path d="M1451.21 680.162C1446.19 681.935 1440.68 683.708 1434.66 683.708C1426.88 683.708 1422.62 681.935 1417.85 679.909C1419.36 695.357 1425.38 706.753 1445.44 716.883C1469.77 729.039 1494.85 725.24 1494.85 725.24V698.903C1494.85 698.903 1457.73 706.5 1451.21 680.162Z" fill="white"/>
<path d="M1010.76 504.973C1064.57 504.973 1108.53 461.095 1108.53 407.383C1108.53 353.671 1064.57 309.793 1010.76 309.793C956.944 309.793 912.982 353.671 912.982 407.383C912.982 461.852 956.944 504.973 1010.76 504.973Z" fill="#3A5675"/>
<g clip-path="url(#clip2)">
<path d="M1017.44 409.201C1018.86 406.732 1025.71 393.976 1025.71 393.976C1025.71 393.976 1018.05 390.067 1015.43 385.129L1000.5 396.445L983.557 390.684C983.557 390.684 980.733 391.919 979.523 395.005C978.313 398.091 978.515 400.971 978.515 400.971L991.827 413.316L991.222 425.866C991.222 425.866 996.265 421.957 999.896 424.632C1003.53 427.306 1004.54 431.421 1004.54 431.421C1004.54 431.421 1008.57 425.66 1009.17 425.249C1009.78 424.837 1007.76 419.488 1009.98 418.459C1012.2 417.225 1018.45 413.933 1018.45 413.933C1018.45 413.933 1016.23 411.67 1017.44 409.201Z" fill="white"/>
<path d="M973.068 382.866L974.884 385.129L979.926 382.454C979.926 382.454 983.961 382.043 986.381 385.129C988.802 388.215 989.003 391.301 989.003 391.301L1000.7 394.593C1000.7 394.593 998.685 389.861 998.685 389.449C998.685 389.038 1005.75 384.306 1005.75 384.306L1002.32 378.545C1002.32 378.545 997.879 376.076 1000.9 369.904C1003.93 363.732 1012.81 366.201 1012.81 366.201V365.172C1012.81 365.172 1011.19 362.086 1009.17 360.44C1007.76 358.588 1003.73 359 1003.73 359L989.407 371.344L977.103 369.904C981.944 377.311 973.068 382.866 973.068 382.866Z" fill="white"/>
<path d="M971.859 380.397C975.288 378.751 975.893 376.282 976.095 374.225C976.297 372.167 974.683 370.522 971.657 370.933C968.632 371.345 967.623 375.048 967.623 375.048C967.623 375.048 970.447 377.105 971.859 380.397Z" fill="white"/>
<path d="M961.974 385.335C964.192 385.541 967.016 383.072 967.622 380.603C968.227 378.134 966.21 377.105 963.991 376.9C962.579 376.694 958.746 377.517 958.141 380.603C957.334 383.483 959.755 385.129 961.974 385.335Z" fill="white"/>
<path d="M1010.79 368.67C1008.77 367.024 1005.74 369.287 1004.53 370.316C1002.92 371.756 1001.91 375.254 1003.73 376.9C1005.54 378.546 1009.38 376.9 1010.79 375.254C1012.4 373.608 1012.8 370.316 1010.79 368.67Z" fill="white"/>
<path d="M1012.2 377.517C1008.97 380.397 1005.14 379.574 1005.14 379.574L1009.38 385.746L1002.32 390.684L1002.92 392.947C1002.92 392.947 1013.81 384.718 1016.23 382.866C1019.06 382.66 1022.29 384.718 1024.3 386.569C1027.33 389.038 1027.53 393.153 1027.53 393.153L1021.88 404.88L1026.52 411.053C1026.52 411.053 1029.75 395.005 1030.35 391.713C1030.96 388.215 1040.24 388.627 1040.24 388.627L1049.92 378.134C1049.92 378.134 1050.73 376.282 1048.71 372.168C1046.69 368.053 1043.67 368.464 1043.67 368.464L1026.32 376.077L1015.02 369.287C1015.02 369.287 1015.43 374.636 1012.2 377.517Z" fill="white"/>
<path d="M1018.05 384.512C1016.84 384.512 1019.46 387.187 1020.67 388.421C1021.88 389.656 1025.71 391.919 1025.92 391.096C1026.12 390.273 1025.31 389.861 1022.89 386.981C1020.07 383.895 1018.05 384.512 1018.05 384.512Z" fill="white"/>
<path d="M1018.65 410.847L1019.86 413.522L1024.91 411.258L1021.07 406.321L1018.65 410.847Z" fill="white"/>
<path d="M976.9 401.383C976.9 401.383 975.69 399.325 977.909 394.593C980.128 389.861 983.153 389.861 983.153 389.861L987.389 391.096C987.389 391.096 987.389 390.067 985.574 386.981C983.557 383.895 980.128 384.306 980.128 384.306L974.076 387.598L970.042 381.426C969.034 384.101 966.411 386.775 962.781 387.804C959.15 388.833 956.931 385.746 956.931 385.746L957.133 399.531L943.82 411.67C943.82 411.67 943.417 414.345 944.425 417.636C945.434 420.928 949.266 421.546 949.266 421.546L966.008 416.608L980.733 428.541C980.733 428.541 981.741 425.866 984.162 423.191C986.582 420.517 989.81 419.077 989.81 419.077V417.019L987.389 412.287L976.9 401.383Z" fill="white"/>
<path d="M1060.61 416.813L1049.32 412.081L1044.88 393.359C1044.88 393.359 1041.45 394.799 1038.22 394.799C1035 394.799 1031.57 393.359 1031.57 393.359L1027.73 412.081L1010.99 420.105C1010.99 420.105 1010.39 422.986 1010.99 425.455C1011.6 427.923 1013.82 430.187 1013.82 430.187L1032.37 430.804C1032.37 430.804 1038.02 438.211 1040.44 441.502C1040.84 439.856 1041.45 438.005 1044.68 435.536C1047.9 432.861 1053.35 435.536 1053.35 435.536L1052.75 428.541L1059.4 427.512C1059.4 427.512 1061.22 425.249 1061.62 422.368C1062.23 419.282 1060.61 416.813 1060.61 416.813Z" fill="white"/>
<path d="M1033.58 391.302C1033.58 391.919 1036.4 392.33 1038.22 392.33C1040.03 392.33 1043.26 391.713 1043.26 391.096C1043.26 390.479 1040.24 390.067 1038.22 390.067C1038.22 390.273 1033.58 390.684 1033.58 391.302Z" fill="white"/>
<path d="M1047.1 436.976C1043.26 438.622 1043.47 442.12 1043.87 443.148C1044.47 444.177 1047.5 446.029 1050.12 444.589C1052.74 443.148 1053.75 440.268 1053.15 438.416C1052.74 436.77 1049.32 435.947 1047.1 436.976Z" fill="white"/>
<path d="M999.695 428.335C997.073 427.101 994.047 427.512 993.039 429.158C992.03 430.804 992.837 433.89 995.056 435.124C997.476 436.359 1000.3 436.976 1002.12 434.713C1003.93 432.45 1002.12 429.569 999.695 428.335Z" fill="white"/>
<path d="M983.559 428.335C985.375 428.335 990.014 424.22 990.014 424.22V421.751C990.014 421.751 981.744 428.335 983.559 428.335Z" fill="white"/>
</g>
<path d="M1239.66 470.174C1252.55 453.53 1260.88 432.348 1260.88 409.653C1260.88 385.444 1251.79 363.505 1237.39 346.862C1219.2 368.044 1192.67 381.662 1163.11 381.662C1133.55 381.662 1106.26 368.044 1088.83 347.618C1074.43 365.018 1065.33 386.957 1065.33 411.166C1065.33 433.861 1073.67 455.044 1086.55 471.687C1104.75 448.991 1132.03 434.618 1163.11 434.618C1194.18 433.105 1221.47 448.235 1239.66 470.174Z" fill="#69D8DE"/>
<path d="M1226.02 448.235C1248.75 497.408 1307.12 518.591 1355.63 495.895C1404.89 473.2 1426.12 414.948 1403.38 366.531C1380.64 317.358 1322.28 296.175 1273.77 318.871C1224.5 341.566 1203.28 399.818 1226.02 448.235Z" fill="#3A5675"/>
<g clip-path="url(#clip3)">
<path d="M1066.34 626.884L1056.23 621.858L1058.18 617.901C1058.69 616.815 1059.38 615.918 1060.16 615.352C1060.94 614.785 1061.77 614.438 1062.81 614.39C1063.74 614.373 1064.72 614.575 1065.8 615.107C1066.88 615.638 1067.66 616.369 1068.23 617.159C1068.79 617.949 1069.03 618.827 1069.09 619.875C1069.14 620.923 1068.81 621.841 1068.18 622.957L1066.34 626.884ZM1065.61 623.779L1066.36 622.274C1066.88 621.187 1066.97 620.219 1066.76 619.45C1066.52 618.571 1065.76 617.951 1064.69 617.419C1062.53 616.356 1060.93 616.91 1059.9 619.083L1059.14 620.588L1065.61 623.779Z" fill="#395676"/>
<path d="M1071.7 616.21L1062.24 610.177L1066.38 603.611L1067.94 604.603L1065.1 609.157L1067.35 610.55L1070.03 606.275L1071.72 607.348L1069.04 611.622L1071.46 613.205L1074.29 608.652L1075.84 609.644L1071.7 616.21Z" fill="#395676"/>
<path d="M1079.01 605.47C1078.66 605.918 1078.32 606.366 1077.84 606.735C1077.36 607.103 1076.98 607.441 1076.58 607.669C1076.18 607.898 1075.67 608.156 1075.34 608.245L1074.4 606.496C1075.05 606.318 1075.67 606.03 1076.15 605.662C1076.63 605.294 1077.08 604.816 1077.53 604.339C1077.95 603.751 1078.16 603.222 1078.29 602.834C1078.27 602.364 1078.18 602.035 1077.88 601.765C1077.71 601.575 1077.46 601.524 1077.25 601.583C1077.03 601.643 1076.7 601.732 1076.41 601.93C1076.11 602.129 1075.74 602.468 1075.26 602.836C1074.7 603.343 1074.22 603.711 1073.7 603.969C1073.19 604.228 1072.79 604.456 1072.35 604.575C1071.92 604.693 1071.57 604.672 1071.18 604.542C1070.8 604.411 1070.41 604.28 1070.1 604.01C1069.52 603.579 1069.26 603.06 1068.97 602.43C1068.79 601.771 1068.72 601.082 1068.89 600.444C1069.04 599.696 1069.43 598.998 1069.93 598.271C1070.27 597.823 1070.65 597.485 1071.02 597.146C1071.39 596.808 1071.8 596.579 1072.2 596.351C1072.61 596.122 1073.04 596.004 1073.36 595.915L1074.31 597.664C1073.66 597.842 1073.15 598.1 1072.63 598.358C1072.15 598.726 1071.78 599.064 1071.44 599.513C1070.98 599.99 1070.89 600.489 1070.79 600.988C1070.8 601.457 1070.89 601.787 1071.31 602.027C1071.48 602.217 1071.72 602.268 1071.94 602.208C1072.16 602.149 1072.37 602.09 1072.78 601.861C1073.07 601.662 1073.48 601.434 1073.93 600.956C1074.49 600.449 1074.97 600.081 1075.48 599.822C1075.99 599.564 1076.4 599.336 1076.83 599.217C1077.26 599.098 1077.62 599.119 1077.97 599.14C1078.36 599.271 1078.75 599.402 1079.05 599.672C1079.64 600.103 1080 600.592 1080.18 601.252C1080.36 601.911 1080.41 602.49 1080.15 603.267C1079.98 603.906 1079.62 604.713 1079.01 605.47Z" fill="#395676"/>
<path d="M1083.39 599.783L1081.67 601.555L1076.98 589.966L1078.33 588.532L1090.03 592.535L1088.3 594.307L1078.83 590.759L1079.28 590.281L1083.39 599.783ZM1081.41 598.081L1080.73 596.024L1084.61 591.892L1086.65 592.516L1081.41 598.081Z" fill="#395676"/>
<path d="M1090.62 592.137L1083.26 583.525L1085.15 581.943L1091.17 589.035L1094.94 585.761L1096.29 587.281L1090.62 592.137Z" fill="#395676"/>
<path d="M1097.36 586.516L1090.55 577.396L1092.48 575.924L1099.28 585.044L1097.36 586.516Z" fill="#395676"/>
<path d="M1100.89 583.66L1094.78 574.114L1096.25 573.12L1105.56 576.477L1105.36 577.005L1101.04 570.158L1103.02 568.906L1109.13 578.452L1107.55 579.476L1098.38 576.199L1098.58 575.671L1102.9 582.518L1100.89 583.66Z" fill="#395676"/>
<path d="M1111.88 576.992L1109.61 578.084L1109.24 565.668L1111 564.835L1120.61 572.713L1118.45 573.776L1110.81 567.129L1111.32 566.871L1111.88 576.992ZM1110.57 574.753L1110.57 572.628L1115.61 570.186L1117.25 571.507L1110.57 574.753Z" fill="#395676"/>
<path d="M1122.42 572.099L1119.09 563.328L1115.82 564.577L1115.06 562.659L1123.93 559.289L1124.69 561.207L1121.42 562.456L1124.75 571.227L1122.42 572.099Z" fill="#395676"/>
<path d="M1129.1 569.681L1125.77 558.785L1128.26 558.103L1131.49 569.029L1129.1 569.681Z" fill="#395676"/>
<path d="M1138.48 567.35C1137.37 567.537 1136.44 567.555 1135.42 567.243C1134.52 566.901 1133.79 566.39 1133.12 565.63C1132.44 564.87 1132.07 563.911 1131.77 562.812C1131.57 561.684 1131.52 560.636 1131.71 559.638C1131.94 558.751 1132.41 557.914 1133.15 557.237C1134.04 556.64 1134.87 556.293 1135.96 555.997C1137.07 555.81 1138 555.792 1138.91 556.134C1139.82 556.476 1140.54 556.986 1141.21 557.747C1141.89 558.507 1142.27 559.466 1142.46 560.594C1142.65 561.722 1142.71 562.77 1142.51 563.768C1142.32 564.765 1141.82 565.493 1141.07 566.169C1140.51 566.677 1139.6 567.164 1138.48 567.35ZM1138.08 565.453C1138.95 565.216 1139.65 564.788 1140.01 563.981C1140.37 563.174 1140.45 562.206 1140.23 560.968C1140.01 559.73 1139.52 558.8 1138.8 558.289C1138.08 557.779 1137.34 557.627 1136.44 557.754C1135.57 557.992 1134.87 558.419 1134.51 559.226C1134.15 560.034 1134.07 561.002 1134.32 562.35C1134.54 563.588 1135.03 564.517 1135.75 565.028C1136.36 565.568 1137.21 565.69 1138.08 565.453Z" fill="#395676"/>
<path d="M1145.4 565.811L1144.3 554.541L1146.01 554.426L1152.77 561.669L1152.4 562.007L1151.6 553.961L1153.85 553.697L1155.07 564.938L1153.24 565.083L1146.51 557.95L1146.89 557.612L1147.69 565.657L1145.4 565.811Z" fill="#395676"/>
</g>
<g clip-path="url(#clip4)">
<path d="M1564.93 316.384L1559.59 306.556L1561.35 305.63L1569.31 311.837L1568.55 312.284L1567.74 302.162L1569.51 301.236L1574.82 311.17L1572.8 312.126L1569.2 305.443L1569.74 305.276L1570.56 313.363L1569.18 314.191L1562.84 309.161L1563.25 308.706L1566.84 315.39L1564.93 316.384Z" fill="#395676"/>
<path d="M1577.66 309.912L1575.33 310.754L1576.03 298.414L1577.87 297.633L1586.77 306.217L1584.5 307.203L1577.39 299.979L1577.97 299.706L1577.66 309.912ZM1576.57 307.603L1576.73 305.499L1582.02 303.436L1583.56 304.826L1576.57 307.603Z" fill="#395676"/>
<path d="M1587.38 306.195L1584.45 295.312L1589.22 294.023C1590.55 293.659 1591.51 293.644 1592.32 294.054C1593.13 294.464 1593.62 295.118 1593.95 296.196C1594.21 297.13 1594.12 298.056 1593.61 298.831C1593.09 299.605 1592.29 300.159 1591 300.417L1592.19 299.764C1592.59 299.666 1592.94 299.674 1593.26 299.788C1593.58 299.902 1593.97 300.16 1594.28 300.631L1596.56 303.608L1594.05 304.268L1591.74 301.04C1591.56 300.858 1591.28 300.637 1591.03 300.668C1590.82 300.592 1590.43 300.69 1590.17 300.721L1588.6 301.115L1589.78 305.497L1587.38 306.195ZM1588.14 299.391L1590.25 298.83C1590.94 298.595 1591.37 298.39 1591.63 298.002C1591.85 297.722 1591.89 297.258 1591.83 296.757C1591.67 296.218 1591.43 295.891 1591.11 295.777C1590.68 295.625 1590.18 295.686 1589.54 295.815L1587.42 296.376L1588.14 299.391Z" fill="#395676"/>
<path d="M1598.06 303.425L1595.92 292.345L1598.36 291.898L1600.5 302.978L1598.06 303.425Z" fill="#395676"/>
<path d="M1602.47 302.485L1601.23 291.246L1602.98 291.034L1609.81 298.038L1609.45 298.387L1608.59 290.406L1610.91 290.277L1612.16 301.516L1610.3 301.69L1603.47 294.687L1603.83 294.337L1604.69 302.319L1602.47 302.485Z" fill="#395676"/>
<path d="M1614.12 301.38L1614.09 290.096L1621.76 290.083L1621.79 292.012L1616.51 292.041L1616.52 294.683L1621.55 294.685L1621.58 296.614L1616.55 296.612L1616.59 299.505L1621.87 299.477L1621.9 301.405L1614.12 301.38Z" fill="#395676"/>
<path d="M1627.67 301.674L1629.13 290.565L1634.04 291.243C1635.43 291.38 1636.38 291.722 1636.97 292.413C1637.56 293.104 1637.76 293.894 1637.63 294.927C1637.5 295.959 1637.02 296.627 1636.22 297.182C1635.43 297.736 1634.53 297.895 1633.29 297.689L1634.61 297.682C1634.96 297.69 1635.35 297.948 1635.63 298.169C1635.91 298.389 1636.11 298.822 1636.17 299.323L1637.02 302.983L1634.39 302.641L1633.51 298.73C1633.38 298.441 1633.24 298.153 1633.03 298.077C1632.82 298.001 1632.5 297.887 1632.18 297.772L1630.58 297.559L1629.94 302.009L1627.67 301.674ZM1630.91 295.638L1633.08 295.935C1633.75 296.057 1634.25 295.996 1634.68 295.791C1635.01 295.548 1635.23 295.268 1635.32 294.698C1635.36 294.235 1635.26 293.84 1635.02 293.513C1634.74 293.293 1634.25 292.997 1633.54 292.981L1631.37 292.684L1630.91 295.638Z" fill="#395676"/>
<path d="M1638.47 303.264L1641.07 292.323L1648.6 294.057L1648.16 295.94L1642.98 294.685L1642.43 297.244L1647.29 298.385L1646.85 300.268L1641.99 299.127L1641.36 301.899L1646.54 303.153L1646.1 305.036L1638.47 303.264Z" fill="#395676"/>
<path d="M1647.41 305.386L1651.01 294.68L1652.7 295.288L1655.95 304.607L1655.41 304.774L1658.05 297.082L1660.28 297.88L1656.68 308.586L1654.88 307.94L1651.59 298.728L1652.13 298.561L1649.54 306.146L1647.41 305.386Z" fill="#395676"/>
<path d="M1658.45 309.338L1663.17 299.156L1670.16 302.378L1669.41 304.147L1664.57 301.936L1663.38 304.267L1667.89 306.364L1667.04 308.095L1662.52 305.998L1661.35 308.579L1666.3 310.829L1665.54 312.598L1658.45 309.338Z" fill="#395676"/>
<path d="M1669.56 314.756L1672.18 303.101L1674.32 304.469L1672.09 313.383L1671.6 313.086L1678.79 307.386L1680.26 308.275L1678.13 317.227L1677.64 316.931L1684.76 311.086L1686.7 312.378L1677.33 319.816L1675.68 318.745L1677.58 310.431L1677.86 310.651L1671.17 315.934L1669.56 314.756Z" fill="#395676"/>
<path d="M1681.43 322.726L1679.51 321.077L1690.65 315.712L1692.23 316.996L1689.03 328.925L1687.18 327.421L1690.03 317.77L1690.49 318.173L1681.43 322.726ZM1682.98 320.759L1684.96 319.91L1689.3 323.503L1688.82 325.492L1682.98 320.759Z" fill="#395676"/>
<path d="M1689.41 329.539L1697.46 321.75L1701.05 325.434C1701.82 326.308 1702.26 327.067 1702.42 327.964C1702.47 328.822 1702.21 329.566 1701.62 330.196C1701.22 330.651 1700.64 330.924 1700.14 330.985C1699.54 331.008 1698.97 330.924 1698.47 330.628L1698.51 330.521C1698.89 331.137 1699.02 331.782 1699.04 332.39C1698.96 332.959 1698.62 333.559 1698.18 334.121C1697.45 334.819 1696.77 335.054 1695.84 334.963C1694.92 334.871 1694.15 334.355 1693.28 333.443L1689.41 329.539ZM1692.5 329.927L1694.35 331.788C1694.76 332.297 1695.26 332.593 1695.61 332.601C1695.97 332.609 1696.36 332.51 1696.73 332.161C1697.09 331.812 1697.21 331.493 1697.21 331.136C1697.22 330.779 1696.91 330.308 1696.46 329.906L1694.61 328.044L1692.5 329.927ZM1695.96 326.61L1697.64 328.288C1698.05 328.797 1698.48 328.949 1698.9 329.101C1699.26 329.109 1699.65 329.011 1699.98 328.768C1700.34 328.418 1700.46 328.1 1700.36 327.705C1700.26 327.31 1700.06 326.877 1699.6 326.474L1697.93 324.795L1695.96 326.61Z" fill="#395676"/>
<path d="M1696.79 337.34L1705.55 330.281L1707.11 332.279L1699.88 338.086L1703.03 341.975L1701.51 343.227L1696.79 337.34Z" fill="#395676"/>
<path d="M1702.2 344.314L1711.61 338.091L1715.89 344.539L1714.3 345.647L1711.33 341.227L1709.12 342.714L1711.91 346.953L1710.32 348.061L1707.53 343.823L1705.17 345.378L1708.14 349.799L1706.55 350.907L1702.2 344.314Z" fill="#395676"/>
<path d="M1708.9 355.35C1708.59 354.879 1708.43 354.34 1708.26 353.8C1708.09 353.261 1708.03 352.76 1707.97 352.259C1707.91 351.758 1707.96 351.294 1708.01 350.831L1709.97 350.695C1709.85 351.371 1709.87 351.978 1710 352.624C1710.13 353.269 1710.29 353.809 1710.67 354.424C1711.05 355.039 1711.36 355.51 1711.75 355.768C1712.13 356.027 1712.49 356.034 1712.92 355.829C1713.1 355.655 1713.25 355.586 1713.32 355.374C1713.4 355.161 1713.41 354.804 1713.38 354.554C1713.28 354.159 1713.18 353.764 1713.05 353.118C1712.82 352.435 1712.69 351.789 1712.63 351.288C1712.57 350.787 1712.51 350.286 1712.66 349.861C1712.71 349.397 1712.93 349.117 1713.15 348.836C1713.37 348.555 1713.7 348.312 1714.13 348.107C1714.71 347.834 1715.35 347.705 1715.92 347.789C1716.6 347.91 1717.23 348.138 1717.79 348.579C1718.35 349.02 1718.84 349.673 1719.28 350.432C1719.59 350.903 1719.76 351.443 1719.86 351.837C1720.03 352.377 1720.12 352.772 1720.18 353.273C1720.24 353.774 1720.2 354.237 1720.08 354.556L1718.12 354.692C1718.24 354.016 1718.22 353.409 1718.16 352.908C1718.14 352.3 1717.83 351.829 1717.66 351.29C1717.39 350.713 1717.04 350.348 1716.65 350.09C1716.27 349.832 1715.87 349.93 1715.44 350.135C1715.26 350.31 1715.11 350.378 1715.04 350.59C1714.96 350.803 1714.99 351.054 1714.98 351.411C1714.97 351.767 1715.14 352.307 1715.31 352.846C1715.54 353.529 1715.67 354.175 1715.73 354.676C1715.79 355.177 1715.85 355.678 1715.7 356.104C1715.54 356.529 1715.43 356.848 1715.32 357.167C1715.1 357.448 1714.77 357.69 1714.44 357.933C1713.83 358.313 1713.18 358.442 1712.61 358.358C1712.05 358.274 1711.41 358.046 1710.78 357.461C1710.15 356.876 1709.31 356.215 1708.9 355.35Z" fill="#395676"/>
</g>
<path d="M1542.84 470.174C1555.73 453.53 1564.06 432.348 1564.06 409.653C1564.06 385.444 1554.97 363.505 1540.57 346.862C1522.38 368.044 1495.85 381.662 1466.29 381.662C1436.73 381.662 1409.44 368.044 1392.01 347.618C1377.61 365.018 1368.51 386.957 1368.51 411.166C1368.51 433.861 1376.85 455.044 1389.73 471.687C1407.93 448.991 1435.21 434.618 1466.29 434.618C1497.36 433.105 1524.65 448.235 1542.84 470.174Z" fill="#69D8DE"/>
<path d="M1529.2 448.235C1551.94 497.408 1610.3 518.591 1658.81 495.895C1708.07 473.2 1729.3 414.948 1706.56 366.531C1683.82 317.358 1625.46 296.175 1576.95 318.871C1527.68 341.566 1506.46 399.818 1529.2 448.235Z" fill="#3A5675"/>
<path d="M1331.37 503.46C1323.79 483.791 1309.39 466.391 1289.68 455.043C1268.46 442.939 1244.96 439.913 1222.98 443.696C1232.08 469.417 1230.56 499.678 1216.16 525.399C1201.76 551.121 1175.99 567.764 1149.46 573.06C1157.04 594.242 1171.44 612.398 1192.67 624.503C1212.37 635.85 1234.35 639.633 1255.58 636.607C1244.96 610.129 1245.72 578.355 1261.64 551.877C1276.8 524.643 1302.57 507.999 1331.37 503.46Z" fill="#69D8DE"/>
<g clip-path="url(#clip5)">
<path d="M1243.39 139.087C1241.64 136.573 1230.63 133.304 1217.87 130.79C1205.35 128.527 1189.59 127.772 1189.59 127.772L1174.57 114.698C1174.57 114.698 1171.82 119.223 1170.57 121.486C1169.32 123.749 1160.56 129.281 1162.31 129.281C1164.06 129.281 1164.81 129.784 1167.57 131.544C1161.81 131.795 1148.55 133.807 1143.79 134.813C1139.04 135.567 1134.78 132.801 1134.78 132.801L1131.53 134.561L1133.78 137.076C1133.78 137.076 1126.53 137.076 1124.77 137.076C1123.02 137.076 1116.52 132.55 1113.01 130.287C1109.26 128.024 1103.5 128.024 1103.5 128.024C1103.5 128.024 1103 137.578 1103 137.83C1103 138.081 1105 140.344 1105.76 143.11C1106.51 145.876 1103.5 150.905 1102.5 155.179C1108.26 155.933 1118.52 151.91 1118.52 151.91C1118.52 151.91 1121.77 149.899 1126.03 149.899C1130.28 149.647 1136.54 150.653 1136.54 150.653L1133.03 151.659C1133.03 151.659 1134.03 162.471 1135.03 163.728C1136.04 164.985 1138.04 164.231 1138.04 164.231C1138.04 164.231 1145.29 161.716 1150.55 158.196C1155.55 154.676 1157.56 156.185 1157.56 156.185L1171.32 157.442C1171.32 157.442 1169.32 164.231 1169.07 167.248C1168.82 170.265 1171.32 168.254 1172.57 167.248C1173.82 166.242 1177.83 162.471 1177.83 162.471C1177.83 162.471 1178.58 164.734 1179.08 164.231C1179.58 163.728 1182.08 161.465 1183.58 159.202C1189.84 159.956 1203.6 157.945 1208.36 157.19C1209.11 158.448 1208.11 161.716 1208.11 161.716C1208.11 161.716 1206.86 164.231 1209.36 163.476C1211.86 162.722 1216.62 155.179 1216.62 155.179C1216.62 155.179 1237.89 150.402 1241.14 149.396C1244.39 148.642 1246.14 144.87 1246.14 144.87H1242.89L1246.14 143.361C1245.89 142.859 1245.14 141.601 1243.39 139.087Z" fill="white"/>
<path d="M1305.46 85.531C1305.46 85.531 1304.7 84.2738 1302.95 81.7594C1301.2 79.2451 1290.19 75.9764 1277.43 73.462C1264.66 71.1991 1249.15 70.4448 1249.15 70.4448L1234.13 57.3701C1234.13 57.3701 1231.38 61.8959 1230.13 64.1589C1228.88 66.4218 1220.12 71.9534 1221.87 71.9534C1223.62 71.9534 1224.37 72.4563 1227.13 74.2163C1221.37 74.4678 1208.11 76.4793 1203.35 77.485C1198.6 78.2393 1194.34 75.4735 1194.34 75.4735L1191.09 77.2336L1193.34 79.7479C1193.34 79.7479 1186.09 79.7479 1184.33 79.7479C1182.08 79.2451 1175.83 74.9706 1172.07 72.4563C1168.32 70.1933 1162.56 70.1933 1162.56 70.1933C1162.56 70.1933 1162.31 79.7479 1162.31 79.9994C1162.31 80.2508 1164.31 82.5137 1165.07 85.2795C1165.82 88.0453 1162.81 93.0741 1161.81 97.3485C1167.57 98.1028 1177.83 94.0798 1177.83 94.0798C1177.83 94.0798 1181.08 92.0683 1185.34 92.0683C1189.59 91.8169 1195.85 92.8226 1195.85 92.8226L1192.09 93.8284C1192.09 93.8284 1193.09 104.64 1194.09 105.897C1195.1 107.155 1197.1 106.4 1197.1 106.4C1197.1 106.4 1204.35 103.886 1209.61 100.366C1214.62 96.8456 1216.62 98.3543 1216.62 98.3543L1230.38 99.6114C1230.38 99.6114 1228.38 106.4 1228.13 109.417C1227.88 112.435 1230.38 110.423 1231.63 109.417C1232.88 108.412 1236.89 104.64 1236.89 104.64C1236.89 104.64 1237.64 106.903 1238.14 106.4C1238.64 105.897 1241.14 103.634 1242.64 101.371C1248.9 102.126 1262.66 100.114 1267.42 99.36C1268.17 100.617 1267.17 103.886 1267.17 103.886C1267.17 103.886 1265.92 106.4 1268.42 105.646C1270.92 104.892 1275.68 97.3485 1275.68 97.3485C1275.68 97.3485 1296.95 92.5712 1300.2 91.5655C1303.45 90.8112 1305.21 87.0396 1305.21 87.0396H1301.95L1305.46 85.531Z" fill="white"/>
<path d="M1195.6 200.689C1193.84 198.175 1182.83 194.906 1170.07 192.392C1157.31 190.129 1141.79 189.123 1141.79 189.123L1126.78 176.048C1126.78 176.048 1124.02 180.574 1122.77 182.837C1121.52 185.1 1112.76 190.632 1114.51 190.632C1116.27 190.632 1117.02 191.134 1119.77 192.894C1114.01 193.146 1100.75 195.157 1096 196.163C1091.24 196.917 1086.99 194.152 1086.99 194.152L1083.73 195.912L1085.99 198.426C1085.99 198.426 1078.73 198.426 1076.98 198.426C1075.23 198.426 1068.72 193.9 1065.22 191.637C1061.46 189.374 1055.71 189.374 1055.71 189.374C1055.71 189.374 1055.21 198.929 1055.21 199.18C1055.21 199.432 1057.21 201.695 1057.96 204.461C1058.71 207.226 1055.71 212.004 1054.46 216.278C1060.21 217.284 1070.47 213.261 1070.47 213.261C1070.47 213.261 1073.72 211.249 1077.98 211.249C1082.23 210.998 1088.49 212.004 1088.49 212.004L1084.99 213.009C1084.99 213.009 1085.99 223.821 1086.99 225.078C1087.99 226.336 1089.99 225.581 1089.99 225.581C1089.99 225.581 1097.25 223.067 1102.5 219.547C1107.51 216.027 1109.51 217.535 1109.51 217.535L1123.27 218.792C1123.27 218.792 1121.27 225.581 1121.02 228.599C1120.77 231.616 1123.27 229.604 1124.52 228.599C1125.78 227.09 1129.53 223.318 1129.53 223.318C1129.53 223.318 1130.28 225.581 1130.78 225.078C1131.28 224.576 1133.78 222.313 1135.29 220.05C1141.54 220.804 1155.31 218.792 1160.06 218.038C1160.81 219.295 1159.81 222.564 1159.81 222.564C1159.81 222.564 1158.56 225.078 1161.06 224.324C1163.56 223.57 1168.32 216.027 1168.32 216.027C1168.32 216.027 1189.59 211.249 1192.84 210.244C1196.1 209.489 1197.85 205.718 1197.85 205.718H1194.59L1197.85 204.209C1198.1 204.461 1197.1 203.203 1195.6 200.689Z" fill="white"/>
<path d="M1259.91 144.87L1252.4 134.561L1257.91 129.03L1256.91 128.024L1251.65 133.555L1244.89 124.504L1251.65 117.966L1256.91 124.504L1257.91 123.749L1252.65 116.961L1254.4 115.201L1253.65 114.195L1251.9 115.955L1244.64 107.155L1247.9 104.389L1247.15 103.383L1244.14 106.149L1224.62 81.7595L1217.12 87.5425L1208.36 75.725L1215.11 71.1991L1214.61 70.1934L1207.86 74.7192L1198.6 62.3988L1197.6 63.1531L1206.86 75.4735L1195.59 83.0166L1184.83 70.1934L1196.1 63.4046L1195.34 62.3988L1184.08 69.1876L1177.08 60.6388L1176.08 61.3931L1183.08 69.9419L1172.32 76.4793L1158.81 60.8902L1158.56 60.3873L1143.79 68.9362L1141.29 66.4218L1140.29 67.1761L1142.54 69.6905L1129.28 77.485L1126.78 74.9707L1125.78 75.725L1128.03 77.9879L1110.01 88.5483L1126.03 104.137L1109.51 113.943L1100 105.395L1099.25 106.4L1108.51 114.698L1089.49 126.012L1088.74 126.515L1107.51 142.104L1089.49 154.425L1088.74 154.928L1108.76 170.517L1096 180.323L1096.75 181.328L1109.76 171.271L1125.02 183.088L1109.01 196.163L1102.75 191.889L1102 192.895L1158.31 230.61L1170.32 218.29L1182.83 227.844L1179.33 231.616L1180.33 232.37L1183.83 228.599L1186.09 230.359L1186.84 229.353L1184.83 227.844L1195.84 215.775L1206.86 225.078L1217.12 212.758L1220.37 215.775L1221.12 214.77L1217.87 211.752L1225.87 202.198L1231.63 207.729L1232.38 206.724L1226.63 200.94L1235.38 190.38L1241.89 197.169L1242.89 196.415L1236.39 189.626L1243.89 180.574L1250.15 187.363L1251.15 186.609L1244.64 179.317L1251.9 170.768L1254.65 174.037L1255.65 173.282L1252.65 169.762L1257.91 163.728L1256.91 162.974L1251.9 169.008L1245.14 161.213L1252.15 153.419L1258.66 161.213L1259.66 160.459L1253.15 152.413L1259.91 144.87ZM1258.41 144.619L1252.15 151.407L1244.64 142.356L1251.4 135.567L1258.41 144.619ZM1250.65 134.561L1243.89 141.601L1236.64 132.801L1243.89 125.509L1250.65 134.561ZM1172.57 170.768L1183.83 160.962L1195.09 172.025L1184.83 182.083L1172.57 170.768ZM1184.08 182.586L1172.07 194.152L1158.56 183.088L1171.57 171.522L1184.08 182.586ZM1183.83 114.698L1194.84 126.515L1184.33 135.064L1172.82 122.995L1183.83 114.698ZM1172.07 121.989L1159.56 108.663L1171.32 100.617L1183.08 113.44L1172.07 121.989ZM1216.87 130.035L1207.11 138.333L1196.35 126.515L1206.61 118.218L1216.87 130.035ZM1207.86 117.715L1216.62 110.675L1226.13 121.989L1217.87 129.281L1207.86 117.715ZM1183.83 158.951L1171.57 146.882L1184.33 136.573L1195.84 148.642L1183.83 158.951ZM1196.35 149.647L1206.61 160.459L1195.84 171.02L1184.58 159.956L1196.35 149.647ZM1185.08 135.818L1195.34 127.521L1206.11 139.338L1196.6 147.887L1185.08 135.818ZM1195.59 125.761L1184.58 113.943L1195.59 105.646L1205.85 117.463L1195.59 125.761ZM1183.33 135.818L1170.57 146.127L1158.31 134.058L1171.82 123.749L1183.33 135.818ZM1169.57 146.882L1157.31 156.939L1144.04 145.122L1157.31 135.064L1169.57 146.882ZM1170.57 147.887L1182.83 159.956L1171.57 170.014L1158.06 157.945L1170.57 147.887ZM1195.84 172.78L1204.6 181.328L1195.09 191.134L1185.58 182.586L1195.84 172.78ZM1196.85 171.774L1207.61 161.213L1215.86 170.014L1205.6 180.574L1196.85 171.774ZM1208.36 160.459L1217.37 151.659L1225.37 160.459L1216.62 169.259L1208.36 160.459ZM1207.61 159.453L1197.35 148.893L1207.11 140.344L1216.62 150.653L1207.61 159.453ZM1208.11 139.338L1217.62 131.041L1226.38 141.099L1217.62 149.647L1208.11 139.338ZM1218.62 130.035L1226.88 122.744L1234.88 132.55L1227.13 140.093L1218.62 130.035ZM1227.88 121.989L1236.14 114.698L1243.39 124.504L1236.14 131.795L1227.88 121.989ZM1226.88 120.984L1217.37 109.669L1226.38 102.377L1234.88 113.692L1226.88 120.984ZM1216.87 108.663L1207.11 96.8457L1217.12 89.3026L1226.13 101.372L1216.87 108.663ZM1215.86 109.418L1207.11 116.458L1196.85 104.64L1206.11 97.6L1215.86 109.418ZM1195.84 103.886L1185.08 91.5655L1195.09 84.7767L1205.1 96.8457L1195.84 103.886ZM1194.84 104.64L1183.83 112.938L1172.32 100.114L1184.33 92.0684L1194.84 104.64ZM1171.32 99.36L1158.81 85.7824L1172.07 77.9879L1183.58 91.3141L1171.32 99.36ZM1170.32 99.8629L1158.56 107.909L1145.29 94.0799L1158.06 86.2853L1170.32 99.8629ZM1157.31 108.663L1142.54 118.721L1128.03 104.389L1144.04 94.5827L1157.31 108.663ZM1158.31 109.669L1171.07 122.995L1157.56 133.304L1143.54 119.726L1158.31 109.669ZM1156.31 134.058L1143.04 144.116L1127.78 130.287L1142.54 120.229L1156.31 134.058ZM1142.04 144.87L1126.78 156.436L1109.51 142.104L1126.53 130.79L1142.04 144.87ZM1143.04 145.876L1156.31 157.693L1142.04 169.259L1127.78 157.442L1143.04 145.876ZM1157.31 158.448L1170.82 170.517L1157.81 182.083L1143.29 170.014L1157.31 158.448ZM1156.56 183.088L1143.54 194.403L1144.29 195.409L1157.31 183.843L1170.82 195.157L1169.57 196.415L1170.32 197.42L1171.57 196.163L1181.58 204.461L1169.57 216.53L1127.03 183.088L1142.04 171.02L1156.56 183.088ZM1173.07 195.157L1184.83 183.591L1194.34 192.14L1183.08 203.455L1173.07 195.157ZM1195.34 192.895L1206.11 202.449L1195.84 213.764L1184.33 204.209L1195.34 192.895ZM1196.1 191.889L1205.6 182.083L1215.36 191.637L1206.61 201.192L1196.1 191.889ZM1206.61 181.328L1216.87 171.02L1225.87 180.574L1216.37 191.134L1206.61 181.328ZM1217.62 170.014L1226.38 161.213L1234.88 170.517L1226.63 179.568L1217.62 170.014ZM1227.13 160.208L1235.38 151.659L1243.39 160.962L1235.63 169.511L1227.13 160.208ZM1226.38 159.453L1218.37 150.653L1227.13 142.104L1234.63 150.905L1226.38 159.453ZM1228.13 141.099L1235.88 133.555L1243.14 142.356L1235.63 149.899L1228.13 141.099ZM1250.9 116.961L1244.14 123.498L1236.89 113.943L1243.64 107.909L1250.9 116.961ZM1224.37 83.5195L1242.89 106.903L1236.14 112.938L1227.63 101.623L1232.38 97.8514L1231.63 96.8457L1226.88 100.617L1217.87 88.5483L1224.37 83.5195ZM1207.36 76.4793L1216.12 88.2968L1206.11 95.8399L1196.1 84.0224L1207.36 76.4793ZM1183.83 70.6962L1194.59 83.5195L1184.58 90.3083L1173.07 76.9822L1183.83 70.6962ZM1158.06 61.8959L1171.07 76.9822L1158.06 84.7767L1144.54 69.6905L1158.06 61.8959ZM1143.29 70.4448L1157.06 85.531L1144.29 93.3256L1130.03 78.4908L1143.29 70.4448ZM1112.01 88.7997L1129.03 78.9937L1143.29 93.8284L1127.03 103.383L1112.01 88.7997ZM1126.78 105.143L1141.29 119.475L1126.53 129.532L1110.51 114.949L1126.78 105.143ZM1090.99 126.767L1109.51 115.452L1125.52 130.035L1108.51 141.35L1090.99 126.767ZM1090.99 154.928L1108.76 143.11L1126.03 157.442L1110.01 169.762L1090.99 154.928ZM1110.76 170.517L1126.78 158.196L1141.04 170.014L1126.03 182.083L1110.76 170.517ZM1158.06 228.85L1110.01 196.666L1126.03 183.843L1169.57 217.284L1158.06 228.85ZM1183.83 226.839L1171.32 217.284L1183.33 205.215L1194.84 214.77L1183.83 226.839ZM1206.61 222.816L1196.6 214.518L1206.86 203.203L1216.12 211.501L1206.61 222.816ZM1216.87 210.747L1207.61 202.449L1216.37 192.895L1224.87 201.192L1216.87 210.747ZM1225.87 200.186L1217.37 191.889L1226.88 181.328L1234.63 189.626L1225.87 200.186ZM1235.38 188.62L1227.63 180.574L1235.63 171.774L1242.89 179.82L1235.38 188.62ZM1251.15 169.762L1243.89 178.311L1236.64 170.517L1244.39 161.968L1251.15 169.762ZM1244.39 160.208L1236.39 150.905L1243.89 143.361L1251.4 152.413L1244.39 160.208Z" fill="white"/>
</g>
<path d="M1247.24 718.31C1274.53 671.406 1257.85 611.642 1210.86 585.164C1163.87 557.929 1103.99 574.573 1077.46 621.476C1050.17 668.38 1066.85 728.145 1113.84 754.623C1160.83 781.857 1220.71 765.214 1247.24 718.31Z" fill="#3A5675"/>
<path d="M1247.24 718.31C1274.53 671.406 1257.85 611.642 1210.86 585.164C1163.87 557.929 1103.99 574.573 1077.46 621.476C1050.17 668.38 1066.85 728.145 1113.84 754.623C1160.83 781.857 1220.71 765.214 1247.24 718.31Z" fill="#3A5675"/>
<path d="M788.271 997.115C775.386 980.471 767.048 959.289 767.048 936.594C767.048 912.385 776.143 890.446 790.545 873.803C808.735 894.985 835.264 908.603 864.824 908.603C894.384 908.603 921.67 894.985 939.103 874.559C953.504 891.959 962.6 913.898 962.6 938.107C962.6 960.802 954.262 981.984 941.377 998.628C923.186 975.932 895.9 961.559 864.824 961.559C833.748 960.046 806.462 974.419 788.271 997.115Z" fill="#EAF1F8"/>
<path d="M930.516 982.073C903.23 935.169 919.905 875.405 966.898 848.927C1013.89 822.449 1073.77 838.335 1100.3 885.239C1126.83 932.143 1110.91 991.908 1063.92 1018.39C1016.92 1044.86 957.045 1028.98 930.516 982.073Z" fill="#EAF1F8"/>
<g clip-path="url(#clip6)">
<path d="M968.323 906.419C967.353 907.387 967.353 908.839 968.323 909.807C968.323 909.807 977.046 919.242 977.046 934.242C977.046 949.242 968.565 958.194 968.323 958.436C967.353 959.403 967.353 960.855 968.323 961.823C968.807 962.306 969.292 962.548 970.019 962.548C970.746 962.548 971.231 962.306 971.715 961.823C972.2 961.339 981.651 951.177 981.651 934.242C981.651 917.306 972.2 906.903 971.715 906.661C970.746 905.452 969.292 905.452 968.323 906.419Z" fill="white"/>
<path d="M986.739 891.177C985.769 890.21 984.315 890.21 983.346 891.177C982.377 892.145 982.377 893.597 983.346 894.565C983.588 894.806 998.37 909.807 998.37 934C998.37 958.194 983.346 972.952 983.346 973.194C982.377 974.161 982.377 975.613 983.346 976.581C983.831 977.065 984.558 977.307 985.042 977.307C985.769 977.307 986.254 977.065 986.739 976.581C987.466 975.855 1003.22 960.129 1003.22 934C1003.46 907.871 987.466 891.903 986.739 891.177Z" fill="white"/>
<path d="M1009.28 897.71L1011.94 892.145C1006.13 881.258 1000.07 875.21 999.582 874.726C998.613 873.758 997.159 873.758 996.19 874.726C995.221 875.694 995.221 877.145 996.19 878.113C996.19 878.355 1003.22 885.371 1009.28 897.71Z" fill="white"/>
<path d="M996.19 989.887C995.221 990.855 995.221 992.306 996.19 993.274C996.675 993.758 997.401 994 997.886 994C998.613 994 999.098 993.758 999.582 993.274C1000.07 992.79 1005.88 986.984 1011.46 976.823L1008.55 971.742C1002.73 983.113 996.19 989.645 996.19 989.887Z" fill="white"/>
<path d="M1018.72 959.887C1020.91 952.387 1022.6 943.919 1022.6 934.242C1022.6 924.323 1020.91 915.613 1018.48 907.871L1015.33 914.887C1016.79 920.694 1017.76 927.226 1017.76 934.242C1017.76 941.016 1017.03 947.306 1015.57 952.871C1016.54 955.048 1017.51 957.468 1018.72 959.887Z" fill="white"/>
<path d="M951.116 944.161C957.808 944.161 963.233 938.745 963.233 932.065C963.233 925.384 957.808 919.968 951.116 919.968C944.425 919.968 939 925.384 939 932.065C939 938.745 944.425 944.161 951.116 944.161Z" fill="white"/>
<path d="M1050.96 934C1050.96 919 1059.44 909.806 1059.68 909.565C1060.65 908.597 1060.65 907.145 1059.68 906.177C1058.71 905.21 1057.26 905.21 1056.29 906.177C1055.8 906.661 1046.35 916.823 1046.35 933.758C1046.35 950.694 1055.8 960.855 1056.29 961.339C1056.77 961.823 1057.5 962.065 1057.98 962.065C1058.47 962.065 1059.19 961.823 1059.68 961.339C1060.65 960.371 1060.65 958.919 1059.68 957.952C1059.68 958.194 1050.96 949 1050.96 934Z" fill="white"/>
<path d="M1044.41 891.177C1043.44 890.21 1041.99 890.21 1041.02 891.177C1040.29 891.903 1024.54 907.871 1024.54 934C1024.54 960.371 1040.54 976.097 1041.02 976.581C1041.51 977.065 1041.99 977.307 1042.72 977.307C1043.44 977.307 1043.93 977.065 1044.41 976.581C1045.38 975.613 1045.38 974.161 1044.41 973.194C1044.17 972.952 1029.39 958.194 1029.39 934C1029.39 909.807 1044.41 894.806 1044.41 894.565C1045.38 893.839 1045.38 892.145 1044.41 891.177Z" fill="white"/>
<path d="M1010.24 934.242C1010.24 899.887 1031.57 878.355 1031.81 878.113C1032.78 877.145 1032.78 875.694 1031.81 874.726C1030.84 873.758 1029.39 873.758 1028.42 874.726C1027.45 875.694 1005.4 897.71 1005.4 934.242C1005.4 970.774 1027.45 992.548 1028.42 993.274C1028.9 993.758 1029.39 994 1030.12 994C1030.84 994 1031.33 993.758 1031.81 993.274C1032.78 992.306 1032.78 990.855 1031.81 989.887C1031.57 989.645 1010.24 968.597 1010.24 934.242Z" fill="white"/>
<path d="M1076.64 944.161C1083.33 944.161 1088.76 938.745 1088.76 932.065C1088.76 925.384 1083.33 919.968 1076.64 919.968C1069.95 919.968 1064.53 925.384 1064.53 932.065C1064.53 938.745 1069.95 944.161 1076.64 944.161Z" fill="white"/>
</g>
<g clip-path="url(#clip7)">
<path d="M1644.13 472.065C1635.57 466.696 1627.27 461.595 1618.98 456.495C1618.98 445.757 1618.98 435.02 1618.98 423.745C1624.86 433.677 1630.48 442.804 1636.37 452.2C1637.71 452.2 1639.05 452.737 1639.85 451.395C1639.85 451.126 1639.58 450.589 1639.58 450.321C1635.3 440.657 1631.29 430.993 1627.01 421.061C1625.67 417.839 1624.33 414.886 1621.65 412.739C1621.39 408.981 1621.92 405.222 1621.12 401.196C1624.6 400.659 1626.2 398.243 1627.81 395.29C1630.48 389.921 1633.69 384.821 1636.64 379.452C1638.78 375.425 1640.92 371.399 1643.06 367.64C1642.26 366.835 1641.45 365.761 1640.38 365.224C1639.85 366.835 1638.78 367.64 1637.98 368.714C1634.23 373.815 1630.22 378.647 1626.47 383.747C1622.72 388.847 1618.17 393.143 1616.84 399.585C1616.84 399.854 1616.57 399.854 1616.3 400.122C1614.96 400.122 1613.63 400.122 1612.29 400.122C1610.42 400.659 1610.42 402.538 1609.88 403.88C1608.27 404.149 1606.94 404.149 1605.87 403.075C1604.53 401.733 1602.66 401.464 1600.78 401.464C1594.36 401.196 1587.94 402.27 1581.25 402.001C1576.17 402.001 1571.35 402.001 1566.26 402.001C1566 403.075 1565.19 403.88 1565.46 405.222C1571.35 406.565 1577.5 406.833 1583.66 407.907C1589.81 408.712 1595.97 409.518 1602.39 410.323C1604.8 409.786 1607.2 408.712 1609.88 409.249C1609.88 410.323 1610.15 411.397 1610.15 412.47C1610.68 413.544 1611.75 413.813 1612.02 414.618C1612.02 428.845 1612.02 442.804 1612.02 457.032C1603.99 462.132 1595.7 467.233 1587.94 472.065C1584.73 472.065 1582.05 472.065 1579.38 472.065C1576.7 472.065 1574.02 471.796 1571.35 472.333C1571.08 474.481 1570.81 476.091 1571.35 477.702C1579.64 477.702 1587.4 477.702 1595.7 477.702C1595.7 475.823 1595.7 473.944 1595.7 472.065C1601.32 468.575 1606.67 465.354 1612.02 461.864C1612.56 462.401 1613.09 462.938 1613.36 463.206C1613.36 466.427 1613.36 469.112 1613.36 472.065C1610.15 472.065 1606.94 472.065 1603.73 472.065C1602.66 473.944 1602.92 475.823 1603.19 477.702C1611.49 477.702 1619.51 477.702 1627.54 477.702C1627.54 475.823 1628.08 474.212 1627.01 472.333C1624.06 471.528 1621.12 472.333 1618.44 471.796C1618.17 468.843 1618.17 466.159 1618.17 463.474C1618.71 462.669 1618.98 462.132 1619.78 461.595C1625.4 465.085 1631.02 468.575 1636.64 472.065C1636.1 473.944 1635.84 475.554 1636.37 477.433C1640.12 477.97 1658.85 477.97 1660.99 477.165C1660.99 475.554 1661.52 473.675 1660.45 472.065C1654.83 472.065 1649.48 472.065 1644.13 472.065Z" fill="white"/>
<path d="M1616.04 354.218C1624.87 354.218 1636.64 361.735 1647.07 361.735C1659.38 361.735 1669.82 354.218 1683.73 354.218C1682.39 350.729 1678.38 347.507 1675.17 346.434C1668.21 346.434 1655.9 354.218 1646.54 354.218C1637.17 354.218 1627.01 346.702 1616.04 346.702C1605.06 346.702 1593.83 354.487 1583.93 354.487C1573.76 354.487 1567.6 346.702 1556.37 346.702C1556.37 346.702 1553.15 348.044 1551.28 350.192C1549.14 352.071 1547 356.097 1547 356.097C1547 356.097 1549.68 354.218 1556.37 354.218C1566.53 354.218 1570.81 361.735 1583.66 361.735C1596.5 361.735 1606.94 354.218 1616.04 354.218Z" fill="white"/>
</g>
<g clip-path="url(#clip8)">
<path d="M935.356 336.043C934.575 336.913 933.795 337.456 932.903 337.783C932.011 338.109 931.119 338.109 930.116 337.891C929.224 337.674 928.221 337.13 927.441 336.478C926.549 335.716 925.991 334.955 925.657 334.085C925.211 333.106 925.099 332.236 925.322 331.258C925.545 330.388 925.991 329.518 926.772 328.648C927.218 328.104 927.775 327.669 928.444 327.343C929.001 327.017 929.559 326.799 930.228 326.799L931.008 328.43C930.451 328.539 929.893 328.757 929.447 328.974C929.001 329.192 928.667 329.518 928.221 329.953C927.552 330.605 927.329 331.366 927.441 332.236C927.552 332.998 928.109 333.868 929.001 334.629C929.893 335.39 930.785 335.825 931.677 335.825C932.569 335.825 933.238 335.499 933.907 334.738C934.241 334.303 934.464 333.976 934.687 333.433C934.91 332.889 935.021 332.454 935.021 331.801L936.805 332.345C936.805 332.889 936.694 333.541 936.471 334.194C936.136 334.846 935.802 335.499 935.356 336.043Z" fill="#395676"/>
<path d="M942.38 329.083C941.599 329.844 940.707 330.279 939.815 330.496C938.924 330.714 938.032 330.605 937.14 330.279C936.248 329.953 935.245 329.409 934.464 328.539C933.684 327.669 933.127 326.799 932.904 325.929C932.681 325.059 932.681 324.189 932.904 323.319C933.238 322.449 933.795 321.688 934.576 320.927C935.356 320.165 936.248 319.73 937.14 319.513C938.032 319.296 938.924 319.404 939.815 319.73C940.707 320.057 941.599 320.6 942.38 321.47C943.16 322.34 943.717 323.21 943.94 324.08C944.163 324.95 944.163 325.82 943.94 326.69C943.717 327.56 943.16 328.322 942.38 329.083ZM941.042 327.669C941.711 327.017 942.045 326.364 941.934 325.494C941.934 324.624 941.488 323.863 940.596 322.884C939.704 322.014 938.924 321.47 938.032 321.362C937.251 321.253 936.471 321.47 935.802 322.123C935.133 322.775 934.799 323.428 934.799 324.298C934.799 325.059 935.245 325.929 936.137 326.908C937.028 327.778 937.809 328.322 938.701 328.43C939.592 328.539 940.373 328.322 941.042 327.669Z" fill="#395676"/>
<path d="M948.176 323.972L946.169 325.385L943.717 313.641L945.278 312.553L955.98 318.426L953.973 319.839L945.389 314.837L945.835 314.511L948.176 323.972ZM946.615 322.123L946.281 320.166L950.74 317.012L952.524 317.991L946.615 322.123Z" fill="#395676"/>
<path d="M959.994 316.359C959.548 316.686 958.99 316.903 958.545 317.012C957.987 317.229 957.541 317.338 956.984 317.338C956.426 317.447 955.98 317.447 955.535 317.338L955.312 315.489C955.98 315.598 956.649 315.489 957.207 315.381C957.764 315.272 958.433 315.054 958.99 314.728C959.548 314.402 959.994 313.967 960.217 313.641C960.44 313.314 960.44 312.879 960.217 312.553C960.105 312.336 959.882 312.227 959.659 312.118C959.436 312.009 959.102 312.009 958.768 312.118C958.433 312.227 957.987 312.336 957.43 312.444C956.761 312.662 956.092 312.879 955.535 312.879C954.977 312.988 954.531 312.988 954.085 312.879C953.639 312.771 953.305 312.662 952.97 312.444C952.636 312.227 952.413 311.901 952.19 311.574C951.856 311.031 951.744 310.487 951.744 309.834C951.744 309.182 952.079 308.638 952.413 307.986C952.859 307.442 953.416 306.898 954.197 306.463C954.643 306.246 955.089 306.028 955.646 305.811C956.203 305.593 956.649 305.593 957.095 305.485C957.541 305.376 957.987 305.485 958.322 305.485L958.545 307.333C957.876 307.225 957.318 307.225 956.761 307.333C956.203 307.442 955.646 307.66 955.2 307.877C954.643 308.203 954.308 308.53 954.085 308.965C953.862 309.4 953.862 309.726 954.085 310.161C954.197 310.378 954.42 310.487 954.531 310.596C954.643 310.704 954.977 310.704 955.423 310.596C955.869 310.487 956.203 310.378 956.872 310.269C957.541 310.052 958.21 309.943 958.656 309.834C959.102 309.726 959.659 309.726 960.105 309.834C960.551 309.834 960.886 310.052 961.22 310.269C961.555 310.487 961.778 310.813 962 311.139C962.335 311.683 962.446 312.336 962.446 312.879C962.335 313.532 962.112 314.076 961.666 314.619C961.443 315.381 960.774 315.924 959.994 316.359Z" fill="#395676"/>
<path d="M967.351 312.444L963.56 304.397L960.439 305.811L959.547 303.962L968.131 300.156L968.911 301.896L965.79 303.31L969.58 311.357L967.351 312.444Z" fill="#395676"/>
<path d="M973.593 309.726L971.252 310.487L972.367 298.634L974.262 297.981L982.735 306.572L980.505 307.333L973.705 300.156L974.262 299.939L973.593 309.726ZM972.59 307.442L972.813 305.376L978.052 303.527L979.502 304.941L972.59 307.442Z" fill="#395676"/>
<path d="M983.404 306.463L980.729 295.915L983.181 295.371L985.411 304.071L990.204 302.875L990.65 304.723L983.404 306.463Z" fill="#395676"/>
<path d="M996.002 303.853L994.887 293.087L999.903 292.544C1001.13 292.435 1002.13 292.652 1002.91 293.087C1003.69 293.522 1004.03 294.392 1004.14 295.371C1004.25 296.35 1004.03 297.111 1003.36 297.764C1002.69 298.416 1001.8 298.851 1000.57 298.96L998.008 299.177L998.454 303.527L996.002 303.853ZM997.785 297.437L1000.01 297.22C1000.68 297.111 1001.13 297.002 1001.35 296.676C1001.58 296.35 1001.8 296.024 1001.69 295.589C1001.69 295.154 1001.46 294.827 1001.13 294.61C1000.8 294.392 1000.35 294.284 999.68 294.392L997.451 294.61L997.785 297.437Z" fill="#395676"/>
<path d="M1006.26 302.875L1006.04 292H1011.05C1012.39 292 1013.39 292.217 1014.06 292.761C1014.73 293.305 1015.07 294.066 1015.07 295.045C1015.07 296.024 1014.73 296.785 1014.06 297.329C1013.39 297.872 1012.39 298.199 1011.16 298.199L1012.39 297.872C1012.72 297.872 1013.17 297.981 1013.39 298.199C1013.73 298.416 1013.95 298.742 1014.17 299.177L1015.62 302.548H1013.06L1011.61 298.96C1011.5 298.634 1011.27 298.416 1011.05 298.416C1010.83 298.416 1010.49 298.525 1010.16 298.525H1008.6L1008.71 302.875H1006.26ZM1008.49 296.676H1010.72C1011.39 296.676 1011.94 296.567 1012.28 296.35C1012.61 296.132 1012.72 295.806 1012.72 295.262C1012.72 294.827 1012.5 294.392 1012.28 294.175C1012.06 293.957 1011.5 293.849 1010.72 293.849H1008.49V296.676Z" fill="#395676"/>
<path d="M1021.98 303.527C1020.86 303.418 1019.97 303.092 1019.19 302.548C1018.41 302.005 1017.85 301.352 1017.52 300.482C1017.18 299.612 1017.07 298.634 1017.18 297.437C1017.3 296.35 1017.63 295.371 1018.19 294.61C1018.75 293.849 1019.41 293.305 1020.31 292.87C1021.2 292.544 1022.09 292.435 1023.2 292.544C1024.32 292.652 1025.21 292.979 1025.99 293.522C1026.77 294.066 1027.33 294.719 1027.66 295.589C1028 296.459 1028.11 297.437 1028 298.634C1027.89 299.721 1027.55 300.7 1026.99 301.461C1026.44 302.222 1025.77 302.766 1024.88 303.201C1024.1 303.527 1023.09 303.636 1021.98 303.527ZM1022.2 301.787C1023.09 301.896 1023.87 301.678 1024.43 301.026C1024.99 300.374 1025.43 299.612 1025.55 298.307C1025.66 297.002 1025.55 296.132 1025.1 295.48C1024.65 294.827 1023.98 294.392 1023.09 294.284C1022.2 294.175 1021.42 294.392 1020.86 294.936C1020.31 295.48 1019.86 296.35 1019.75 297.546C1019.64 298.742 1019.75 299.721 1020.19 300.374C1020.64 301.244 1021.31 301.678 1022.2 301.787Z" fill="#395676"/>
<path d="M1030.9 304.723L1032.79 296.024L1029.34 295.371L1029.78 293.522L1039.03 295.48L1038.59 297.329L1035.13 296.676L1033.24 305.376L1030.9 304.723Z" fill="#395676"/>
<path d="M1037.7 306.246L1041.04 295.915L1048.4 298.09L1047.84 299.83L1042.82 298.307L1042.04 300.7L1046.73 302.113L1046.17 303.853L1041.49 302.44L1040.71 305.05L1045.72 306.572L1045.16 308.312L1037.7 306.246Z" fill="#395676"/>
<path d="M1051.07 311.031C1050.07 310.596 1049.18 310.052 1048.62 309.291C1048.06 308.53 1047.73 307.768 1047.62 306.79C1047.51 305.811 1047.73 304.832 1048.18 303.853C1048.62 302.875 1049.18 302.005 1049.96 301.461C1050.74 300.917 1051.52 300.482 1052.52 300.374C1053.53 300.265 1054.42 300.482 1055.53 300.809C1056.2 301.135 1056.87 301.461 1057.32 301.896C1057.87 302.331 1058.21 302.875 1058.43 303.418L1057.09 304.723C1056.76 304.18 1056.43 303.745 1056.09 303.418C1055.76 303.092 1055.31 302.766 1054.86 302.657C1053.97 302.331 1053.08 302.331 1052.41 302.657C1051.63 302.983 1051.07 303.745 1050.63 304.832C1050.18 305.92 1050.07 306.898 1050.29 307.66C1050.52 308.421 1051.07 308.965 1052.08 309.4C1052.52 309.617 1053.08 309.726 1053.53 309.726C1053.97 309.726 1054.53 309.726 1055.2 309.508V311.357C1054.64 311.574 1053.97 311.683 1053.3 311.574C1052.52 311.466 1051.74 311.357 1051.07 311.031Z" fill="#395676"/>
<path d="M1058.1 314.076L1062.45 306.246L1059.44 304.615L1060.33 302.875L1068.58 307.225L1067.69 308.965L1064.68 307.333L1060.33 315.163L1058.1 314.076Z" fill="#395676"/>
<path d="M1064.23 317.556L1070.14 308.421L1072.14 309.726L1066.24 318.861L1064.23 317.556Z" fill="#395676"/>
<path d="M1071.92 322.884C1071.03 322.232 1070.36 321.47 1070.03 320.6C1069.69 319.73 1069.58 318.861 1069.69 317.991C1069.8 317.121 1070.25 316.142 1071.03 315.272C1071.7 314.402 1072.48 313.749 1073.37 313.314C1074.26 312.879 1075.15 312.771 1076.05 312.879C1076.94 312.988 1077.83 313.423 1078.72 314.076C1079.61 314.728 1080.28 315.489 1080.62 316.359C1080.95 317.229 1081.06 318.099 1080.95 318.969C1080.84 319.839 1080.39 320.818 1079.61 321.688C1078.95 322.558 1078.16 323.21 1077.27 323.645C1076.38 324.08 1075.49 324.189 1074.6 324.08C1073.82 323.972 1072.81 323.537 1071.92 322.884ZM1073.15 321.47C1073.93 322.014 1074.71 322.232 1075.49 322.014C1076.27 321.797 1077.05 321.253 1077.83 320.274C1078.61 319.296 1078.95 318.426 1078.95 317.556C1078.95 316.686 1078.5 316.033 1077.83 315.489C1077.05 314.946 1076.27 314.728 1075.49 314.946C1074.71 315.163 1073.93 315.707 1073.15 316.686C1072.37 317.664 1072.03 318.534 1072.03 319.404C1072.03 320.274 1072.37 320.927 1073.15 321.47Z" fill="#395676"/>
<path d="M1077.61 327.017L1085.3 319.187L1086.64 320.383L1085.75 329.844L1085.19 329.735L1090.65 324.08L1092.32 325.603L1084.63 333.433L1083.29 332.236L1084.18 322.884H1084.74L1079.28 328.539L1077.61 327.017Z" fill="#395676"/>
</g>
<g clip-path="url(#clip9)">
<path d="M1420.29 50.5114L1415.94 39.859L1417.83 39.096L1425.26 46.2228L1424.44 46.6016L1424.68 36.2142L1426.58 35.4512L1430.92 46.1036L1428.77 46.872L1425.82 39.7026L1426.39 39.5874L1426.37 47.904L1424.89 48.6067L1418.98 42.8426L1419.43 42.4198L1422.38 49.5892L1420.29 50.5114Z" fill="#395676"/>
<path d="M1433.94 45.1103L1431.48 45.7303L1433.49 33.2395L1435.43 32.6304L1443.57 42.2732L1441.16 43.047L1434.7 34.9702L1435.31 34.7507L1433.94 45.1103ZM1433.03 42.7535L1433.4 40.6277L1438.99 39.0639L1440.4 40.6353L1433.03 42.7535Z" fill="#395676"/>
<path d="M1444.19 42.3119L1442.35 30.9351L1447.33 30.1071C1448.72 29.8713 1449.7 29.954 1450.48 30.4541C1451.26 30.9542 1451.68 31.6685 1451.91 32.8001C1452.08 33.7779 1451.89 34.7117 1451.28 35.4476C1450.68 36.1835 1449.81 36.6666 1448.47 36.7981L1449.75 36.2546C1450.16 36.1943 1450.52 36.2384 1450.83 36.3868C1451.15 36.5352 1451.51 36.8374 1451.78 37.3484L1453.79 40.6119L1451.17 41.0286L1449.15 37.5069C1449 37.3036 1448.68 37.1552 1448.48 37.0562C1448.27 36.9573 1447.86 37.0176 1447.6 37.023L1445.96 37.2642L1446.7 41.8457L1444.19 42.3119ZM1445.67 35.4624L1447.88 35.106C1448.6 34.9359 1449.06 34.7713 1449.31 34.5077C1449.56 34.2441 1449.66 33.7772 1449.65 33.2609C1449.54 32.695 1449.33 32.3379 1449.01 32.1895C1448.7 32.0411 1448.09 32.0025 1447.42 32.0682L1445.21 32.4246L1445.67 35.4624Z" fill="#395676"/>
<path d="M1455.28 40.6837L1454.27 29.1863L1456.79 28.9784L1457.8 40.4758L1455.28 40.6837Z" fill="#395676"/>
<path d="M1459.85 40.1743L1459.77 28.6057L1461.57 28.5678L1467.77 36.3919L1467.36 36.7104L1467.33 28.4981L1469.75 28.4989L1469.84 40.0674L1467.93 40.0558L1461.73 32.2318L1462.14 31.9133L1462.17 40.1255L1459.85 40.1743Z" fill="#395676"/>
<path d="M1471.85 40.1284L1472.99 28.6372L1480.78 29.403L1480.61 31.3695L1475.24 30.8626L1474.98 33.5541L1480.08 34.0665L1479.91 36.033L1474.81 35.5206L1474.55 38.4703L1479.91 38.9773L1479.73 40.9438L1471.85 40.1284Z" fill="#395676"/>
<path d="M1485.57 41.8024L1488.21 30.6412L1493.38 31.8238C1494.52 32.1098 1495.35 32.5055 1495.87 33.2692C1496.45 33.9286 1496.72 34.6977 1496.43 35.582C1496.28 36.1532 1496.03 36.675 1495.58 37.0978C1495.12 37.5207 1494.56 37.6358 1493.89 37.7016L1493.94 37.5972C1494.66 37.9435 1495.08 38.3995 1495.35 38.9105C1495.62 39.4214 1495.68 40.0916 1495.54 40.921C1495.35 41.8548 1494.79 42.4863 1493.97 42.8651C1493.16 43.2439 1492.13 43.2656 1490.94 43.0839L1485.57 41.8024ZM1489.58 35.7777L1491.86 36.3496C1492.53 36.5421 1492.94 36.4818 1493.4 36.3172C1493.71 36.2074 1494.01 35.8394 1494.11 35.3725C1494.2 34.9057 1494.14 34.4937 1493.88 34.2409C1493.62 33.9881 1493.21 33.7903 1492.53 33.5978L1490.26 33.0258L1489.58 35.7777ZM1488.37 40.452L1491.01 41.068C1491.68 41.2604 1492.2 41.2496 1492.55 41.0355C1492.86 40.9257 1493.16 40.5578 1493.26 40.0909C1493.35 39.624 1493.3 39.212 1493.08 38.8549C1492.87 38.4978 1492.46 38.2999 1491.73 38.2118L1489.1 37.5958L1488.37 40.452Z" fill="#395676"/>
<path d="M1496.21 44.5742L1499.69 33.5505L1502.12 34.3258L1498.65 45.3494L1496.21 44.5742Z" fill="#395676"/>
<path d="M1505.43 47.9442C1504.35 47.5538 1503.51 46.8999 1502.98 46.1362C1502.35 45.323 1502.08 44.5539 1501.96 43.4717C1501.89 42.5434 1502.03 41.4558 1502.58 40.3079C1502.97 39.2149 1503.63 38.3746 1504.34 37.6882C1505.1 37.1556 1505.97 36.6725 1506.89 36.6013C1507.87 36.4258 1508.9 36.6624 1509.99 37.0527C1511.08 37.443 1511.91 38.097 1512.44 38.8607C1512.97 39.6244 1513.34 40.4429 1513.46 41.5251C1513.53 42.4535 1513.39 43.5411 1512.84 44.689C1512.45 45.782 1511.74 46.7266 1511.08 47.3087C1510.42 47.8907 1509.45 48.3244 1508.48 48.4999C1507.55 48.571 1506.47 48.4389 1505.43 47.9442ZM1506.17 46.1207C1507 46.5164 1507.93 46.4453 1508.64 46.0171C1509.36 45.5888 1510.01 44.7486 1510.56 43.6007C1511 42.4033 1511.14 41.3157 1510.87 40.5466C1510.6 39.7775 1510.02 39.1181 1509.14 38.8267C1508.31 38.431 1507.39 38.5021 1506.67 38.9303C1505.96 39.3586 1505.3 40.1988 1504.76 41.3467C1504.31 42.5441 1504.07 43.5822 1504.45 44.4008C1504.82 45.2194 1505.29 45.8293 1506.17 46.1207Z" fill="#395676"/>
<path d="M1513.83 51.693L1518.22 43.2844L1515.06 41.6465L1516.16 39.867L1524.68 44.4399L1523.73 46.1644L1520.56 44.5265L1516.17 52.9352L1513.83 51.693Z" fill="#395676"/>
<path d="M1520.17 55.227L1526.55 45.5885L1533.16 49.8916L1532.1 51.5667L1527.52 48.6155L1526.07 50.8672L1530.34 53.67L1529.28 55.3451L1525.02 52.5423L1523.36 54.9533L1527.94 57.9045L1526.88 59.5796L1520.17 55.227Z" fill="#395676"/>
<path d="M1532.1 63.8603C1531.16 63.1569 1530.53 62.3437 1530.21 61.4208C1529.88 60.4978 1529.71 59.52 1529.9 58.5862C1530.09 57.6525 1530.59 56.6089 1531.3 55.6643C1532 54.7197 1532.81 54.0827 1533.78 53.6491C1534.76 53.2154 1535.68 53.1443 1536.61 53.3313C1537.54 53.5184 1538.47 53.9636 1539.41 54.667C1539.94 55.1725 1540.46 55.678 1540.93 56.2879C1541.3 56.8483 1541.62 57.5131 1541.68 58.1833L1539.95 59.1495C1539.73 58.5342 1539.62 57.9684 1539.31 57.5618C1538.99 57.1552 1538.67 56.7487 1538.31 56.4464C1537.47 55.7925 1536.7 55.5506 1535.83 55.7755C1535.01 55.8961 1534.19 56.5331 1533.33 57.5326C1532.48 58.5321 1532.18 59.4164 1532.14 60.2953C1532.11 61.1741 1532.53 61.8884 1533.37 62.5423C1533.83 62.894 1534.25 63.0919 1534.77 63.3392C1535.23 63.4327 1535.8 63.5757 1536.42 63.6144L1535.89 65.5368C1535.22 65.6025 1534.65 65.4595 1533.98 65.2671C1533.35 64.7121 1532.78 64.3109 1532.1 63.8603Z" fill="#395676"/>
<path d="M1536.38 67.1794L1544.48 59.0025L1546.2 60.7224L1538.1 68.8992L1536.38 67.1794ZM1540.29 64.3076L1541.71 62.9348L1547.63 68.957L1546.21 70.3299L1540.29 64.3076ZM1541.77 72.6961L1549.87 64.5192L1551.6 66.2391L1543.5 74.4159L1541.77 72.6961Z" fill="#395676"/>
<path d="M1544.96 75.8831L1553.96 68.7722L1555.06 70.1952L1552.7 79.9558L1552.13 79.8128L1558.53 74.6677L1559.95 76.4973L1550.96 83.6082L1549.75 82.1357L1552.11 72.3751L1552.68 72.5181L1546.28 77.6632L1544.96 75.8831Z" fill="#395676"/>
<path d="M1554.82 89.9319C1554.24 89.0144 1553.86 87.9376 1553.9 87.0588C1553.83 86.1304 1554.17 85.1417 1554.57 84.3069C1555.12 83.4172 1555.83 82.7308 1556.9 82.0884C1557.97 81.446 1558.89 81.1167 1559.92 81.095C1560.85 81.0239 1561.78 81.2109 1562.71 81.6562C1563.65 82.1014 1564.33 82.8102 1564.86 83.8321C1565.39 84.854 1565.71 85.7769 1565.78 86.7053C1565.85 87.6336 1565.55 88.5179 1565 89.4077C1564.45 90.2974 1563.74 90.9838 1562.67 91.6262C1561.6 92.2685 1560.68 92.5979 1559.6 92.7239C1558.68 92.795 1557.75 92.608 1556.81 92.1627C1556.19 91.6077 1555.4 90.8495 1554.82 89.9319ZM1556.45 88.9162C1556.98 89.6799 1557.6 90.2349 1558.48 90.2681C1559.31 90.4057 1560.33 90.1258 1561.45 89.3791C1562.52 88.7367 1563.28 87.946 1563.52 87.166C1563.77 86.3861 1563.65 85.5621 1563.17 84.694C1562.7 83.8259 1562.02 83.3753 1561.14 83.3421C1560.32 83.2045 1559.29 83.4844 1558.22 84.1267C1557.15 84.7691 1556.39 85.5599 1556.15 86.3398C1555.86 87.2241 1555.97 88.0481 1556.45 88.9162Z" fill="#395676"/>
<path d="M1558.63 96.1018L1568.94 91.0293L1570.01 93.3312L1561.53 97.487L1563.77 102.14L1561.93 103.057L1558.63 96.1018Z" fill="#395676"/>
<path d="M1563.88 108.595C1563.5 107.518 1563.33 106.54 1563.57 105.502C1563.81 104.464 1564.16 103.733 1564.81 102.893C1565.42 102.157 1566.34 101.57 1567.56 101.131C1568.64 100.747 1569.77 100.516 1570.7 100.703C1571.68 100.786 1572.51 101.182 1573.24 101.786C1573.97 102.391 1574.55 103.308 1574.93 104.385C1575.3 105.462 1575.48 106.439 1575.28 107.373C1575.09 108.307 1574.7 109.142 1574.09 109.878C1573.38 110.564 1572.57 111.201 1571.39 111.536C1570.27 112.024 1569.19 112.15 1568.26 111.963C1567.33 111.776 1566.45 111.485 1565.72 110.88C1564.89 110.485 1564.26 109.672 1563.88 108.595ZM1565.72 107.936C1566.04 108.859 1566.67 109.414 1567.45 109.656C1568.33 109.947 1569.25 109.876 1570.48 109.437C1571.71 108.998 1572.52 108.361 1572.97 107.68C1573.43 106.999 1573.46 106.12 1573.14 105.197C1572.81 104.274 1572.19 103.719 1571.41 103.477C1570.64 103.236 1569.61 103.257 1568.38 103.696C1567.15 104.135 1566.34 104.772 1565.88 105.453C1565.43 106.134 1565.4 107.013 1565.72 107.936Z" fill="#395676"/>
<path d="M1567.58 120.862C1567.25 119.681 1567.28 118.544 1567.47 117.61C1567.71 116.572 1568.22 115.787 1568.93 115.1C1569.64 114.414 1570.61 113.98 1571.78 113.645C1572.96 113.311 1573.99 113.289 1574.98 113.63C1576.01 113.866 1576.79 114.366 1577.47 115.075C1578.15 115.784 1578.58 116.756 1578.91 117.938C1579.07 118.657 1579.19 119.481 1579.1 120.206C1579.01 120.931 1578.92 121.656 1578.56 122.129L1576.55 121.809C1576.85 121.183 1577 120.612 1576.99 120.096C1576.98 119.579 1576.97 119.063 1576.86 118.497C1576.58 117.47 1576.06 116.706 1575.33 116.36C1574.6 116.014 1573.62 115.931 1572.34 116.216C1571.06 116.502 1570.14 117.089 1569.69 117.77C1569.19 118.555 1569.05 119.385 1569.38 120.566C1569.43 120.978 1569.65 121.335 1569.7 121.747C1569.92 122.104 1570.08 122.566 1570.34 122.818L1569.36 122.477L1572.43 121.638L1571.93 119.479L1573.67 119.029L1574.78 123.396L1569.29 124.752C1569.08 124.395 1568.76 123.988 1568.55 123.631C1568.34 123.274 1568.07 122.763 1567.91 122.301C1567.85 121.889 1567.59 121.378 1567.58 120.862Z" fill="#395676"/>
<path d="M1569.27 129.349L1574.35 128.571L1572.97 129.323L1579.92 123.03L1580.33 125.914L1575.4 130.098L1575.34 129.428L1581.2 132.094L1581.61 134.978L1573.25 130.867L1574.75 131.197L1569.67 131.975L1569.27 129.349Z" fill="#395676"/>
</g>
<path d="M647.767 1245.07C675.053 1198.17 658.378 1138.4 611.385 1111.93C564.392 1085.45 504.514 1101.34 477.986 1148.24C451.457 1195.14 467.374 1254.91 514.367 1281.39C561.36 1307.86 621.239 1291.98 647.767 1245.07Z" fill="#EAF1F8"/>
<path d="M714.125 1031.16C660.31 1031.16 616.349 987.28 616.349 933.567C616.349 879.855 660.31 835.977 714.125 835.977C767.939 835.977 811.9 879.855 811.9 933.567C811.9 988.036 767.939 1031.91 714.125 1031.16Z" fill="#EAF1F8"/>
<g clip-path="url(#clip10)">
<path d="M745.211 983.172C751.939 982.298 755.742 982.298 755.742 982.298C755.742 982.298 763.639 973.265 762.762 973.265C761.884 973.265 728.245 971.517 728.245 971.517L722.102 967.728V857H719.469L717.714 872.444C717.714 872.444 701.626 887.013 700.163 888.179C698.701 889.344 687 913.238 687 913.238L679.102 937.132L675.592 961.609H716.837V968.603L689.34 967.728L684.075 972.099L660.673 973.556L656.578 978.801C656.578 978.801 684.66 982.007 693.728 982.007C678.224 983.755 657.748 984.921 644 982.007C658.918 988.709 660.966 989.583 673.837 989.291C686.415 989 706.306 983.464 717.714 985.503C729.122 987.543 753.109 989 773 984.629C756.912 984.338 748.136 984.046 745.211 983.172Z" fill="white"/>
<path d="M760.13 968.02C746.382 938.298 726.783 891.093 726.783 891.093L729.123 960.152C729.123 959.861 737.899 967.146 760.13 968.02Z" fill="white"/>
</g>
<path d="M1133 655.181L1145.5 722H1179.46L1193 655.181H1133ZM1176.13 717.938H1149.04L1138 659.243H1188L1176.13 717.938Z" fill="white"/>
<path d="M1143.83 669.398L1151.96 715.907H1173L1181.75 669.398H1143.83Z" fill="white"/>
<path d="M1161.96 647.057C1174.25 647.057 1174.67 635.886 1174.67 635.886C1174.67 635.886 1176.54 625.731 1161.96 604C1161.96 604 1158.83 615.577 1154.04 621.263C1149.25 626.95 1148.42 631.215 1148.42 633.855C1148.42 636.496 1149.67 647.057 1161.96 647.057ZM1155.92 626.544C1159.88 621.873 1162.79 612.936 1162.79 612.936C1163.83 616.795 1162.79 620.248 1161.96 622.888C1161.13 625.528 1158.63 628.981 1157.17 633.449C1156.13 637.917 1160.08 642.589 1160.08 642.589C1160.08 642.589 1156.54 643.198 1153 638.527C1150.5 635.277 1152.79 630.403 1155.92 626.544Z" fill="white"/>
<defs>
<clipPath id="clip0">
<rect width="155" height="130" fill="white" transform="translate(629.318 350.66)"/>
</clipPath>
<clipPath id="clip1">
<rect width="106" height="68" fill="white" transform="translate(1412.82 101)"/>
</clipPath>
<clipPath id="clip2">
<rect width="118" height="86" fill="white" transform="translate(943.82 359)"/>
</clipPath>
<clipPath id="clip3">
<rect width="112.264" height="50" fill="white" transform="translate(1045.02 580.882) rotate(-15.3039)"/>
</clipPath>
<clipPath id="clip4">
<rect width="167.059" height="49.5669" fill="white" transform="translate(1573.78 266.907) rotate(19.7025)"/>
</clipPath>
<clipPath id="clip5">
<rect width="251" height="175" fill="white" transform="translate(1054.46 57.3701)"/>
</clipPath>
<clipPath id="clip6">
<rect width="150" height="120" fill="white" transform="translate(939 874)"/>
</clipPath>
<clipPath id="clip7">
<rect width="137" height="131" fill="white" transform="translate(1547 346.702)"/>
</clipPath>
<clipPath id="clip8">
<rect width="167" height="46" fill="white" transform="translate(925.211 292)"/>
</clipPath>
<clipPath id="clip9">
<rect width="190.476" height="60" fill="white" transform="translate(1434.5 0.934814) rotate(25.4894)"/>
</clipPath>
<clipPath id="clip10">
<rect width="129" height="132" fill="white" transform="translate(644 857)"/>
</clipPath>
</defs>
</svg>
