<svg width="1483" height="161" viewBox="0 0 1483 161" fill="none" xmlns="http://www.w3.org/2000/svg">
<g opacity="0.05">
<path d="M35.0746 3.78006V122.618C35.0746 126.772 35.9976 129.772 37.8436 131.618C39.8435 133.464 43.074 134.387 47.5352 134.387H102.224L103.839 161.154C88.3017 162.846 65.8417 163.692 36.4591 163.692C24.1522 163.692 14.999 160.616 8.99939 154.462C2.9998 148.309 0 140.079 0 129.772V3.78006H35.0746Z" fill="#395676"/>
<path d="M209.577 121.234H154.888L143.35 163H107.353L153.273 13.0102C153.888 10.2412 155.349 8.01055 157.657 6.31836C159.965 4.62616 162.58 3.78006 165.503 3.78006H198.731C205.346 3.78006 209.423 6.85678 210.961 13.0102L256.881 163H221.114L209.577 121.234ZM201.962 94.0047L188.578 45.3157C186.732 37.6239 185.655 32.6243 185.347 30.3167H179.117C178.809 31.8551 178.271 34.3165 177.502 37.7008C176.733 41.0852 176.117 43.6235 175.656 45.3157L162.272 94.0047H201.962Z" fill="#395676"/>
<path d="M378.436 32.3935H330.901V163H295.595V32.3935H248.06V3.78006H378.436V32.3935Z" fill="#395676"/>
<path d="M504.563 135.54L506.178 161.385C491.717 162.923 467.104 163.692 432.337 163.692C421.722 163.692 413.261 160.846 406.954 155.154C400.647 149.309 397.416 141.463 397.262 131.618V35.1626C397.416 25.3171 400.647 17.5484 406.954 11.8564C413.261 6.01068 421.722 3.08781 432.337 3.08781C467.104 3.08781 491.717 3.85699 506.178 5.39534L504.563 31.4705H443.413C439.567 31.4705 436.798 32.3935 435.106 34.2395C433.414 36.0856 432.567 39.0854 432.567 43.2389V67.4681H496.025V92.851H432.567V123.541C432.567 127.849 433.414 130.925 435.106 132.771C436.798 134.617 439.567 135.54 443.413 135.54H504.563Z" fill="#395676"/>
<path d="M590.443 102.773L558.368 91.4665C546.523 87.159 538.062 81.3133 532.985 73.9292C527.908 66.5451 525.37 56.8534 525.37 44.8542C525.37 27.3169 529.601 15.6254 538.062 9.77966C546.676 3.78007 561.752 0.780273 583.289 0.780273C603.596 0.780273 621.056 2.85705 635.67 7.01061L633.363 31.009C619.979 30.5475 603.365 30.3167 583.52 30.3167C574.29 30.3167 568.136 31.1628 565.06 32.855C561.983 34.3934 560.445 38.3931 560.445 44.8542C560.445 50.0846 561.598 53.8536 563.906 56.1611C566.214 58.4687 570.598 60.6993 577.059 62.853L607.288 73.2369C619.595 77.5443 628.286 83.467 633.363 91.005C638.439 98.3891 640.978 108.081 640.978 120.08C640.978 137.925 636.67 150.078 628.056 156.539C619.441 162.846 604.057 166 581.905 166C563.906 166 545.676 164 527.216 160L529.293 134.617C562.06 135.387 579.597 135.771 581.905 135.771C591.289 135.771 597.519 134.771 600.596 132.771C603.826 130.771 605.442 126.618 605.442 120.311C605.442 114.926 604.365 111.157 602.211 109.004C600.057 106.696 596.135 104.619 590.443 102.773Z" fill="#395676"/>
<path d="M784.283 32.3935H736.748V163H701.442V32.3935H653.907V3.78006H784.283V32.3935Z" fill="#395676"/>
<path d="M983.636 3.78006V150.309C983.636 158.77 979.482 163 971.175 163H949.254C945.715 163 942.946 162.231 940.947 160.693C938.947 159 937.024 156.308 935.178 152.616L893.411 67.6988C888.181 56.4688 884.95 48.2386 883.72 43.0082H881.181C882.258 50.7 882.797 59.1609 882.797 68.3911V163H849.337V16.4715C849.337 8.01055 853.568 3.78006 862.029 3.78006H883.489C887.027 3.78006 889.796 4.62616 891.796 6.31836C893.796 7.85672 895.719 10.4719 897.565 14.164L937.947 96.543C941.793 104.235 945.639 112.773 949.484 122.157H951.792C950.869 110.157 950.407 101.235 950.407 95.3893V3.78006H983.636Z" fill="#395676"/>
<path d="M1121.78 135.54L1123.4 161.385C1108.94 162.923 1084.32 163.692 1049.56 163.692C1038.94 163.692 1030.48 160.846 1024.17 155.154C1017.87 149.309 1014.64 141.463 1014.48 131.618V35.1626C1014.64 25.3171 1017.87 17.5484 1024.17 11.8564C1030.48 6.01068 1038.94 3.08781 1049.56 3.08781C1084.32 3.08781 1108.94 3.85699 1123.4 5.39534L1121.78 31.4705H1060.63C1056.79 31.4705 1054.02 32.3935 1052.33 34.2395C1050.63 36.0856 1049.79 39.0854 1049.79 43.2389V67.4681H1113.25V92.851H1049.79V123.541C1049.79 127.849 1050.63 130.925 1052.33 132.771C1054.02 134.617 1056.79 135.54 1060.63 135.54H1121.78Z" fill="#395676"/>
<path d="M1351.19 3.78006L1326.04 153.308C1325.42 156.231 1323.96 158.616 1321.66 160.462C1319.35 162.154 1316.58 163 1313.35 163H1279.66C1276.43 163 1273.66 162.077 1271.35 160.231C1269.04 158.385 1267.66 156.001 1267.2 153.078L1249.89 49.0078C1248.66 42.239 1247.74 35.5471 1247.12 28.9322H1242.74C1242.74 29.3937 1242.35 32.2397 1241.58 37.4701C1240.97 42.7005 1240.43 46.6233 1239.97 49.2385L1222.89 153.078C1222.43 156.001 1220.97 158.385 1218.51 160.231C1216.2 162.077 1213.43 163 1210.2 163H1176.51C1173.44 163 1170.67 162.154 1168.2 160.462C1165.9 158.616 1164.44 156.231 1163.82 153.308L1138.67 3.78006H1174.67L1190.13 114.311C1191.05 121.234 1191.74 128.925 1192.2 137.386H1196.82C1197.28 133.079 1198.43 125.387 1200.28 114.311L1217.36 14.6255C1217.82 11.3949 1219.12 8.77973 1221.28 6.77986C1223.59 4.77999 1226.43 3.78006 1229.82 3.78006H1260.28C1263.51 3.78006 1266.2 4.77999 1268.35 6.77986C1270.66 8.77973 1272.04 11.3949 1272.51 14.6255L1289.58 114.542C1291.43 125.926 1292.5 133.541 1292.81 137.386H1297.66C1298.27 128.618 1298.97 121.08 1299.73 114.773L1315.43 3.78006H1351.19Z" fill="#395676"/>
<path d="M1432.11 102.773L1400.03 91.4665C1388.19 87.159 1379.73 81.3133 1374.65 73.9292C1369.57 66.5451 1367.03 56.8534 1367.03 44.8542C1367.03 27.3169 1371.27 15.6254 1379.73 9.77966C1388.34 3.78007 1403.42 0.780273 1424.95 0.780273C1445.26 0.780273 1462.72 2.85705 1477.34 7.01061L1475.03 31.009C1461.64 30.5475 1445.03 30.3167 1425.18 30.3167C1415.95 30.3167 1409.8 31.1628 1406.72 32.855C1403.65 34.3934 1402.11 38.3931 1402.11 44.8542C1402.11 50.0846 1403.26 53.8536 1405.57 56.1611C1407.88 58.4687 1412.26 60.6993 1418.72 62.853L1448.95 73.2369C1461.26 77.5443 1469.95 83.467 1475.03 91.005C1480.1 98.3891 1482.64 108.081 1482.64 120.08C1482.64 137.925 1478.34 150.078 1469.72 156.539C1461.11 162.846 1445.72 166 1423.57 166C1405.57 166 1387.34 164 1368.88 160L1370.96 134.617C1403.72 135.387 1421.26 135.771 1423.57 135.771C1432.95 135.771 1439.18 134.771 1442.26 132.771C1445.49 130.771 1447.11 126.618 1447.11 120.311C1447.11 114.926 1446.03 111.157 1443.88 109.004C1441.72 106.696 1437.8 104.619 1432.11 102.773Z" fill="#395676"/>
</g>
</svg>
