<svg width="1483" height="209" viewBox="0 0 1483 209" fill="none" xmlns="http://www.w3.org/2000/svg">
<g opacity="0.05">
<path d="M166.808 3.83099H210.054C220.841 3.83099 226.431 9.43015 226.823 20.6285L234.766 207.169H192.402L185.636 38.8994H180.635L150.039 164.733C148.077 174.36 141.997 179.173 131.799 179.173H102.379C92.1805 179.173 86.1005 174.36 84.1393 164.733L53.249 38.8994H48.2477L42.3638 207.169H0L7.35483 20.6285C7.94321 9.43015 13.5329 3.83099 24.1238 3.83099H67.3702C76.9805 3.83099 82.8644 8.6443 85.0218 18.2709L109.734 119.645C111.303 126.128 113.068 135.657 115.03 148.23H118.854C119.05 147.248 119.737 143.221 120.913 136.148C122.286 129.075 123.365 123.574 124.15 119.645L148.568 18.2709C150.921 8.6443 157.001 3.83099 166.808 3.83099Z" fill="#395676"/>
<path d="M421.618 172.101L423.677 205.106C405.241 207.071 373.861 208.053 329.535 208.053C316.003 208.053 305.215 204.419 297.174 197.149C289.133 189.684 285.014 179.664 284.818 167.091V43.9092C285.014 31.3357 289.133 21.4143 297.174 14.1452C305.215 6.6797 316.003 2.94692 329.535 2.94692C373.861 2.94692 405.241 3.92923 423.677 5.89384L421.618 39.1941H343.657C338.753 39.1941 335.223 40.3729 333.066 42.7304C330.908 45.088 329.83 48.919 329.83 54.2234V85.1662H410.733V117.582H329.83V156.777C329.83 162.277 330.908 166.207 333.066 168.564C335.223 170.922 338.753 172.101 343.657 172.101H421.618Z" fill="#395676"/>
<path d="M633.782 3.83099H677.028C687.815 3.83099 693.405 9.43015 693.797 20.6285L701.74 207.169H659.377L652.61 38.8994H647.609L617.013 164.733C615.051 174.36 608.971 179.173 598.773 179.173H569.353C559.155 179.173 553.075 174.36 551.113 164.733L520.223 38.8994H515.222L509.338 207.169H466.974L474.329 20.6285C474.917 9.43015 480.507 3.83099 491.098 3.83099H534.344C543.955 3.83099 549.839 8.6443 551.996 18.2709L576.708 119.645C578.277 126.128 580.042 135.657 582.004 148.23H585.828C586.024 147.248 586.711 143.221 587.888 136.148C589.26 129.075 590.339 123.574 591.124 119.645L615.542 18.2709C617.895 8.6443 623.975 3.83099 633.782 3.83099Z" fill="#395676"/>
<path d="M865.939 101.08V102.258C881.041 103.634 891.828 108.84 898.3 117.877C904.773 126.718 908.009 139.586 908.009 156.482C908.009 176.914 902.811 190.863 892.417 198.328C882.022 205.794 864.272 209.527 839.168 209.527C801.511 209.527 772.974 208.741 753.557 207.169V3.83099C771.013 2.25931 796.412 1.47346 829.753 1.47346C856.819 1.47346 875.549 5.20623 885.944 12.6718C896.339 19.9409 901.537 33.8897 901.537 54.5182C901.537 69.2528 898.693 80.4511 893.005 88.1131C887.513 95.5787 878.491 99.9008 865.939 101.08ZM797.392 86.9343H830.048C841.031 86.9343 848.484 85.1662 852.406 81.6299C856.525 78.0936 858.584 71.1192 858.584 60.7067C858.584 50.4907 856.427 43.7127 852.112 40.3729C847.797 37.033 839.658 35.3631 827.694 35.3631L797.392 35.0684V86.9343ZM797.392 175.637H831.519C843.875 175.637 852.21 173.869 856.525 170.332C860.84 166.6 862.997 159.134 862.997 147.936C862.997 135.755 860.742 127.602 856.231 123.476C851.72 119.154 843.09 116.895 830.342 116.698H797.392V175.637Z" fill="#395676"/>
<path d="M1090.62 172.101L1092.68 205.106C1074.24 207.071 1042.86 208.053 998.538 208.053C985.005 208.053 974.218 204.419 966.176 197.149C958.135 189.684 954.016 179.664 953.82 167.091V43.9092C954.016 31.3357 958.135 21.4143 966.176 14.1452C974.218 6.6797 985.005 2.94692 998.538 2.94692C1042.86 2.94692 1074.24 3.92923 1092.68 5.89384L1090.62 39.1941H1012.66C1007.76 39.1941 1004.23 40.3729 1002.07 42.7304C999.91 45.088 998.832 48.919 998.832 54.2234V85.1662H1079.73V117.582H998.832V156.777C998.832 162.277 999.91 166.207 1002.07 168.564C1004.23 170.922 1007.76 172.101 1012.66 172.101H1090.62Z" fill="#395676"/>
<path d="M1299.84 207.169H1252.48L1237.18 144.989C1235.22 138.506 1232.57 134.085 1229.24 131.728C1226.1 129.174 1221.49 127.897 1215.41 127.897L1183.93 127.602V207.169H1139.8V3.83099C1158.04 2.06284 1183.83 1.17875 1217.17 1.17875C1244.44 1.17875 1263.75 5.50092 1275.13 14.1452C1286.51 22.7896 1292.19 38.5065 1292.19 61.2961C1292.19 76.2272 1289.15 87.9167 1283.07 96.3645C1277.19 104.812 1267.28 109.92 1253.36 111.689V113.162C1268.85 116.698 1278.46 126.914 1282.19 143.81L1299.84 207.169ZM1183.93 93.1229H1216.29C1228.06 93.1229 1236.1 91.1583 1240.41 87.229C1244.73 83.1033 1246.89 75.4413 1246.89 64.243C1246.89 53.0447 1244.73 45.4809 1240.41 41.5517C1236.3 37.6224 1228.25 35.6578 1216.29 35.6578L1183.93 35.9525V93.1229Z" fill="#395676"/>
<path d="M1418.57 130.254L1377.68 115.814C1362.58 110.313 1351.79 102.848 1345.32 93.4176C1338.85 83.9874 1335.61 71.6103 1335.61 56.2863C1335.61 33.8897 1341 18.9585 1351.79 11.493C1362.77 3.83099 1381.99 0 1409.45 0C1435.34 0 1457.6 2.65222 1476.23 7.95668L1473.29 38.6047C1456.23 38.0154 1435.05 37.7206 1409.75 37.7206C1397.98 37.7206 1390.13 38.8012 1386.21 40.9623C1382.29 42.9269 1380.33 48.0349 1380.33 56.2863C1380.33 62.966 1381.8 67.7793 1384.74 70.7262C1387.68 73.6732 1393.27 76.5219 1401.51 79.2723L1440.05 92.5335C1455.74 98.0344 1466.82 105.598 1473.29 115.225C1479.76 124.655 1483 137.032 1483 152.356C1483 175.146 1477.51 190.666 1466.53 198.918C1455.54 206.973 1435.93 211 1407.69 211C1384.74 211 1361.5 208.446 1337.96 203.338L1340.61 170.922C1382.39 171.904 1404.74 172.395 1407.69 172.395C1419.65 172.395 1427.59 171.118 1431.52 168.564C1435.64 166.01 1437.69 160.706 1437.69 152.651C1437.69 145.775 1436.32 140.961 1433.58 138.211C1430.83 135.264 1425.83 132.612 1418.57 130.254Z" fill="#395676"/>
</g>
</svg>
