<svg width="644" height="1236" viewBox="0 0 644 1236" fill="none" xmlns="http://www.w3.org/2000/svg">
<path fill-rule="evenodd" clip-rule="evenodd" d="M297.702 181.302C344.116 155.044 360.194 95.6169 333.382 48.8259C306.57 2.03485 247.222 -13.9652 201.082 13.3206C159.853 36.6447 142.56 86.1415 158.004 129.705L157.821 129.731L157.7 129.748L157.575 129.766C168.186 156.244 167.428 188.017 150.753 215.252C138.064 238.048 117.409 253.424 94.123 260.048C78.6095 260.544 62.9991 264.843 48.6638 273.32C2.2496 299.578 -13.829 359.005 12.9832 405.796C28.7014 433.684 56.4001 450.592 86.1574 453.81C112.159 459.742 135.43 475.448 149.453 500.244C163.318 524.76 165.144 552.515 157.595 577.606C146.079 604.627 146.947 636.687 162.79 664.334C178.203 691.68 205.135 708.469 234.233 712.145C233.988 712.771 233.75 713.4 233.518 714.03C260.827 719.36 285.468 735.326 300.074 761.154C314.68 786.982 315.926 816.403 306.926 842.517C307.107 842.55 307.288 842.583 307.47 842.615C301.846 856.456 299.363 871.793 300.812 887.694C305.334 937.31 346.857 975.061 395.546 975.983C417.467 983.323 436.932 997.925 449.56 1019.35C464.386 1044.51 466.161 1073.28 457.722 1099.31C445.69 1126.56 446.357 1159.14 462.423 1187.17C488.584 1233.59 547.932 1249.59 594.723 1222.68C641.137 1196.42 657.216 1137 630.403 1090.2C615.757 1064.65 591.403 1048.27 564.796 1043.13C565.046 1042.52 565.29 1041.9 565.526 1041.29C536.724 1037.51 510.196 1020.86 495.037 993.63C481.591 971.67 478.494 946.76 483.362 924.053C491.935 907.929 496.087 889.253 494.316 869.821C490.139 823.986 454.384 788.276 410.573 782.373C383.598 777.057 359.182 761.242 344.809 734.797C328.901 708.217 327.757 677.115 338.813 650.448C338.378 650.38 337.942 650.314 337.505 650.252C347.367 624.069 345.869 593.713 330.77 567.364C313.089 536.507 281.258 519.041 248.396 518.549C226.385 511.471 206.431 496.413 194.188 473.887C179.852 449.934 177.506 422.31 185.273 397.567C195.704 374.558 197.029 347.652 187.603 322.852C187.953 322.795 188.302 322.737 188.651 322.677C179.555 296.199 181.071 266.695 196.23 240.973C211.389 215.252 236.402 199.365 263.688 194.069C263.596 193.812 263.503 193.556 263.409 193.299C275.137 191.539 286.762 187.593 297.702 181.302Z" fill="#EAF1F8"/>
</svg>
