<svg width="965" height="104" viewBox="0 0 965 104" fill="none" xmlns="http://www.w3.org/2000/svg">
<g opacity="0.07">
<path d="M89.4009 2.01445V99.5546C89.4009 105.187 86.636 108.003 81.1061 108.003H66.5135C64.1582 108.003 62.315 107.491 60.9837 106.467C59.6525 105.34 58.3724 103.548 57.1436 101.091L29.3408 44.5634C25.859 37.0879 23.7085 31.6093 22.8893 28.1276H21.1996C21.9165 33.2478 22.2749 38.88 22.2749 45.0243V108.003H0.00195312V10.4628C0.00195312 4.83057 2.81807 2.01445 8.45031 2.01445H22.7357C25.091 2.01445 26.9343 2.57768 28.2655 3.70413C29.5968 4.72817 30.8768 6.46905 32.1057 8.92675L58.9868 63.7642C61.5469 68.8845 64.107 74.5679 66.6671 80.8146H68.2032C67.5888 72.827 67.2816 66.8876 67.2816 62.9962V2.01445H89.4009Z" fill="#395676"/>
<path d="M181.362 89.7237L182.437 106.928C172.811 107.952 156.426 108.464 133.283 108.464C126.217 108.464 120.585 106.569 116.386 102.78C112.188 98.8889 110.037 93.6663 109.935 87.1124V22.9049C110.037 16.3511 112.188 11.1796 116.386 7.39068C120.585 3.49932 126.217 1.55364 133.283 1.55364C156.426 1.55364 172.811 2.06566 182.437 3.0897L181.362 20.4472H140.656C138.096 20.4472 136.253 21.0617 135.126 22.2905C134 23.5194 133.437 25.5162 133.437 28.2812V44.4098H175.679V61.3065H133.437V81.7362C133.437 84.6035 134 86.6516 135.126 87.8805C136.253 89.1093 138.096 89.7237 140.656 89.7237H181.362Z" fill="#395676"/>
<path d="M334.073 2.01445L317.33 101.551C316.92 103.497 315.948 105.084 314.412 106.313C312.875 107.44 311.032 108.003 308.882 108.003H286.455C284.305 108.003 282.461 107.388 280.925 106.16C279.389 104.931 278.468 103.343 278.16 101.398L266.64 32.1213C265.821 27.6155 265.206 23.1609 264.797 18.7576H261.878C261.878 19.0648 261.622 20.9593 261.11 24.441C260.7 27.9227 260.342 30.534 260.035 32.2749L248.668 101.398C248.361 103.343 247.388 104.931 245.749 106.16C244.213 107.388 242.37 108.003 240.22 108.003H217.793C215.745 108.003 213.902 107.44 212.263 106.313C210.727 105.084 209.754 103.497 209.345 101.551L192.602 2.01445H216.564L226.856 75.5919C227.47 80.2001 227.931 85.3204 228.238 90.9526H231.31C231.618 88.0853 232.386 82.9651 233.615 75.5919L244.981 9.23397C245.289 7.08347 246.159 5.3426 247.593 4.01134C249.129 2.68008 251.023 2.01445 253.276 2.01445H273.552C275.703 2.01445 277.495 2.68008 278.928 4.01134C280.465 5.3426 281.386 7.08347 281.693 9.23397L293.06 75.7456C294.289 83.3235 295.006 88.3925 295.211 90.9526H298.436C298.846 85.1155 299.307 80.0977 299.819 75.8992L310.264 2.01445H334.073Z" fill="#395676"/>
<path d="M387.936 67.9116L366.585 60.3849C358.7 57.5176 353.068 53.6262 349.688 48.7108C346.309 43.7954 344.619 37.3439 344.619 29.3564C344.619 17.6823 347.435 9.89959 353.068 6.00823C358.802 2.01446 368.838 0.0175781 383.174 0.0175781C396.692 0.0175781 408.315 1.40003 418.043 4.16494L416.507 20.14C407.598 19.8328 396.538 19.6792 383.328 19.6792C377.184 19.6792 373.088 20.2424 371.039 21.3689C368.991 22.3929 367.967 25.0554 367.967 29.3564C367.967 32.8382 368.735 35.3471 370.271 36.8831C371.807 38.4192 374.726 39.904 379.027 41.3377L399.149 48.25C407.342 51.1173 413.128 55.0599 416.507 60.0777C419.886 64.9931 421.576 71.4446 421.576 79.4321C421.576 91.311 418.709 99.4009 412.974 103.702C407.239 107.9 396.999 110 382.253 110C370.271 110 358.137 108.669 345.848 106.006L347.23 89.1093C369.043 89.6213 380.717 89.8773 382.253 89.8773C388.499 89.8773 392.647 89.2117 394.695 87.8805C396.845 86.5492 397.921 83.7843 397.921 79.5857C397.921 76.0016 397.204 73.4927 395.77 72.059C394.336 70.5229 391.725 69.1405 387.936 67.9116Z" fill="#395676"/>
<path d="M461.211 2.01445V81.1218C461.211 83.8867 461.826 85.8836 463.055 87.1124C464.386 88.3413 466.536 88.9557 469.506 88.9557H505.911L506.986 106.774C496.643 107.9 481.692 108.464 462.133 108.464C453.941 108.464 447.848 106.416 443.854 102.319C439.86 98.2233 437.863 92.7447 437.863 85.8836V2.01445H461.211Z" fill="#395676"/>
<path d="M590.429 89.7237L591.504 106.928C581.878 107.952 565.494 108.464 542.35 108.464C535.284 108.464 529.652 106.569 525.454 102.78C521.255 98.8889 519.104 93.6663 519.002 87.1124V22.9049C519.104 16.3511 521.255 11.1796 525.454 7.39068C529.652 3.49932 535.284 1.55364 542.35 1.55364C565.494 1.55364 581.878 2.06566 591.504 3.0897L590.429 20.4472H549.723C547.163 20.4472 545.32 21.0617 544.193 22.2905C543.067 23.5194 542.504 25.5162 542.504 28.2812V44.4098H584.746V61.3065H542.504V81.7362C542.504 84.6035 543.067 86.6516 544.193 87.8805C545.32 89.1093 547.163 89.7237 549.723 89.7237H590.429Z" fill="#395676"/>
<path d="M687.227 21.0617H655.585V108.003H632.083V21.0617H600.44V2.01445H687.227V21.0617Z" fill="#395676"/>
<path d="M779.481 21.0617H747.838V108.003H724.337V21.0617H692.694V2.01445H779.481V21.0617Z" fill="#395676"/>
<path d="M863.44 89.7237L864.516 106.928C854.89 107.952 838.505 108.464 815.362 108.464C808.296 108.464 802.664 106.569 798.465 102.78C794.266 98.8889 792.116 93.6663 792.014 87.1124V22.9049C792.116 16.3511 794.266 11.1796 798.465 7.39068C802.664 3.49932 808.296 1.55364 815.362 1.55364C838.505 1.55364 854.89 2.06566 864.516 3.0897L863.44 20.4472H822.735C820.175 20.4472 818.331 21.0617 817.205 22.2905C816.078 23.5194 815.515 25.5162 815.515 28.2812V44.4098H857.757V61.3065H815.515V81.7362C815.515 84.6035 816.078 86.6516 817.205 87.8805C818.331 89.1093 820.175 89.7237 822.735 89.7237H863.44Z" fill="#395676"/>
<path d="M965.001 108.003H940.27L932.283 75.5919C931.258 72.2126 929.876 69.9085 928.135 68.6797C926.497 67.3484 924.09 66.6828 920.916 66.6828L904.48 66.5292V108.003H881.439V2.01445C890.962 1.09282 904.429 0.631997 921.837 0.631997C936.071 0.631997 946.158 2.88489 952.098 7.39068C958.037 11.8965 961.007 20.0888 961.007 31.9677C961.007 39.7504 959.42 45.8435 956.245 50.2469C953.173 54.6503 948.002 57.3128 940.731 58.2344V59.0024C948.821 60.8457 953.839 66.1707 955.784 74.9775L965.001 108.003ZM904.48 48.5572H921.377C927.521 48.5572 931.719 47.5332 933.972 45.4851C936.225 43.3346 937.352 39.3408 937.352 33.5038C937.352 27.6667 936.225 23.7242 933.972 21.6761C931.822 19.628 927.623 18.604 921.377 18.604L904.48 18.7576V48.5572Z" fill="#395676"/>
</g>
</svg>
