<svg width="127" height="158" viewBox="0 0 127 158" fill="none" xmlns="http://www.w3.org/2000/svg">
<path fill-rule="evenodd" clip-rule="evenodd" d="M21.5193 7.24829C30.9422 1.81291 41.4523 0.00112098 51.6001 1.45055C46.5262 14.4955 46.8886 29.3522 54.8618 42.3971C61.8381 54.9523 73.8502 62.8082 87.0206 64.9956C87.2809 65.0343 87.5407 65.0752 87.8001 65.1183C88.0553 65.1562 88.3109 65.192 88.5668 65.2257C88.5637 65.2339 88.5605 65.2421 88.5573 65.2504C102.971 67.8876 115.987 77.2766 122.634 91.6778C133.507 114.869 123.359 142.77 99.8019 153.641C76.6071 164.512 48.7008 154.366 37.8282 130.813C32.1745 118.753 32.2046 105.42 36.8485 93.8704C36.8126 93.8643 36.7767 93.8582 36.7409 93.852C41.0899 81.1694 40.3651 67.0375 33.1167 54.7173C25.8683 42.3971 13.9084 34.7875 0.861328 32.251C4.48552 22.105 11.3715 13.046 21.5193 7.24829Z" fill="#EAF1F8"/>
</svg>
