<svg width="796" height="458" viewBox="0 0 796 458" fill="none" xmlns="http://www.w3.org/2000/svg">
<path fill-rule="evenodd" clip-rule="evenodd" d="M697.485 195.589C668.39 195.589 642.175 182.763 624.23 162.492C624.159 162.586 624.087 162.68 624.015 162.773C623.941 162.869 623.868 162.964 623.794 163.06C605.603 140.364 578.317 125.99 547.241 125.99C524.057 124.862 502.982 132.575 486.219 145.99C481.275 168.763 484.345 193.777 497.84 215.817C512.999 243.052 539.527 259.695 568.329 263.478C568.177 263.873 568.022 264.267 567.865 264.66C612.652 273.54 646.638 313.164 646.638 360.391C646.638 414.86 602.676 458.738 548.862 457.981C495.047 457.981 451.086 414.103 451.086 360.391C451.086 343.966 455.197 328.461 462.443 314.849C468.572 290.638 465.937 264.572 452.363 241.539C437.714 216.684 413.865 201.012 387.654 195.206C363.076 193.009 339.686 181.654 322.954 162.483C322.806 162.676 322.659 162.868 322.511 163.06C304.32 140.364 277.033 125.99 245.957 125.99C222.626 124.854 201.43 132.674 184.616 146.247C174.983 164.818 159.3 180.495 138.728 189.972C90.2186 212.668 31.8563 191.485 9.1177 142.312C-13.6209 93.8949 7.60177 35.6433 56.8687 12.9479C99.0374 -6.78116 148.652 6.64732 175.839 42.7971C193.8 61.3523 218.578 73.0343 245.957 73.0343C272.01 73.0343 296.297 62.4567 313.628 45.9629C321.952 32.8346 333.552 21.5165 348.032 13.3583C392.694 -11.8068 448.996 1.29569 477.245 42.9239C495.196 61.4054 519.924 73.0343 547.241 73.0343C573.217 73.0343 597.438 62.5186 614.759 46.1077C632.11 18.6947 662.744 0.408936 697.485 0.408936C751.299 0.408936 795.261 44.2867 795.261 97.9991C795.261 152.468 751.299 196.346 697.485 195.589Z" fill="#EAF1F8"/>
<path fill-rule="evenodd" clip-rule="evenodd" d="M370.541 80.0535H368.198V85.2565H378.353L376.53 118.815C379.276 118.108 382.082 117.098 384.928 116.075C390.448 114.09 396.118 112.052 401.787 112.052C407.148 112.052 412.509 114.102 417.656 116.071L417.662 116.073L417.919 116.171C418.184 116.273 418.448 116.374 418.712 116.474L417.15 84.476H425.222V79.7934H421.316L444.751 65.7454C444.751 65.7454 447.094 63.6642 449.437 59.762C451.781 55.8598 449.698 47.7952 443.188 37.3893C445.851 44.1601 442.664 51.6052 441.156 55.1281L441.155 55.1301C441.041 55.3964 440.936 55.6403 440.845 55.8598C439.543 58.9815 442.407 62.1033 442.407 62.1033L420.014 74.8506V67.3063H409.078L406.995 21H401.006L398.142 67.5664H378.874V59.762H366.375V67.5664H370.541V80.0535ZM396.58 110.491C393.976 110.751 390.591 112.052 390.591 112.052L396.58 106.068L401.267 110.231C401.267 110.231 399.183 110.231 396.58 110.491ZM406.995 110.491C404.391 107.889 399.704 102.946 399.704 102.946C399.965 103.207 412.723 102.946 412.723 102.946L413.244 112.052C413.177 112.052 413.021 111.999 412.751 111.908C411.98 111.647 410.273 111.069 406.995 110.491ZM411.942 85.5166L412.723 96.7029L399.704 85.5166H411.942ZM383.821 84.9963H394.236L383.04 94.8819L383.821 84.9963ZM396.84 88.3782L410.12 99.3044H383.04L396.84 88.3782ZM382.259 102.946H393.976L381.477 115.954L382.259 102.946ZM482.507 119.336C476.258 113.873 468.446 114.913 459.593 116.214C457.12 116.763 454.067 117.859 450.751 119.05C444.641 121.244 437.64 123.758 431.732 123.758C427.355 123.758 422.739 122.018 417.939 120.21C412.745 118.252 407.337 116.214 401.788 116.214C396.313 116.214 390.77 118.198 385.369 120.131C380.238 121.968 375.235 123.758 370.542 123.758C364.539 123.758 358.537 121.365 353.232 119.25C349.792 117.878 346.646 116.623 343.983 116.214C337.213 115.173 330.703 115.173 321.329 118.295C318.726 119.076 321.069 126.1 321.069 126.1C321.069 126.1 333.307 120.116 343.983 123.498C347.372 124.572 350.026 125.698 352.471 126.735C357.726 128.964 362.011 130.782 370.542 130.782C377.375 130.782 383.507 128.605 389.067 126.631C393.677 124.995 397.893 123.498 401.788 123.498C405.905 123.498 410.679 125.17 415.653 126.912C421.06 128.806 426.703 130.782 431.992 130.782C437.769 130.782 443.546 128.846 449.527 126.841C455.948 124.689 462.604 122.458 469.748 122.458C471.831 122.718 481.726 126.1 481.726 126.1C481.726 126.1 483.288 119.856 482.507 119.336ZM414.547 139.107V130.002L419.494 131.563L421.317 161.74H415.849L415.068 144.05H380.176L379.395 161.74H373.667L375.49 133.384L380.437 132.343V136.246L387.728 129.742C387.728 129.742 397.883 125.319 402.83 126.62C406.215 130.002 414.547 139.107 414.547 139.107ZM393.716 130.002L383.822 139.888H408.819L399.705 130.002H393.716ZM93.9339 145.526L102.127 139.691L100.402 134.936L90.2684 135.8C89.8372 134.72 89.1904 133.639 88.5435 132.559L95.2275 125.211L90.6997 120.888L83.3688 124.346C82.9376 123.806 82.5064 123.32 82.0751 122.833C81.6439 122.347 81.2127 121.861 80.7815 121.321L85.3093 111.163L81.4283 107.921L72.5882 114.189C72.0491 113.865 71.564 113.486 71.0788 113.108C70.5937 112.73 70.1086 112.352 69.5696 112.028L72.1569 101.654L67.4134 99.0605L60.0826 107.273C59.0045 106.841 57.9264 106.408 56.6328 106.192V95.8187C56.8484 95.1704 51.6737 94.3059 51.6737 94.3059L46.9302 104.247C45.6365 104.031 44.5584 104.031 43.2647 104.031C41.9711 99.7088 40.4618 94.3059 40.4618 93.6575C40.4618 92.7931 33.9934 93.6575 33.9934 93.6575L32.6997 104.68L29.4655 105.328L24.2908 96.251L21.0566 97.5477C19.9785 110.299 24.5064 124.562 24.5064 124.562C29.6811 121.753 35.5027 120.24 41.7554 120.24C62.4543 120.24 79.2722 137.097 79.2722 157.844C79.2722 162.599 78.4097 167.137 76.6848 171.244C88.9748 173.189 99.3242 172.54 102.774 172.324C102.774 170.163 102.774 167.137 103.205 167.137C103.636 167.137 98.893 164.544 95.2275 162.815C95.4432 161.518 95.4432 160.222 95.4432 159.141L104.068 156.115V150.496L94.5807 148.119C94.3651 147.687 94.1495 146.606 93.9339 145.526ZM136.625 85.4451V90.1997L129.51 92.577C129.294 94.0898 128.863 95.6025 128.432 97.1153L128.432 97.1155L134.038 103.167L131.666 107.273L124.12 105.328L120.886 108.57L123.042 115.485L118.514 118.295L113.555 113.108C111.83 113.756 110.105 114.405 108.38 114.621L107.302 121.753H101.696L99.7554 114.621L95.2276 113.324L89.8372 119.159L85.7406 116.566L87.6811 108.786L85.0937 106.192L77.3316 108.786L73.8818 104.247L80.1346 98.4122C79.9909 97.9079 79.8232 97.4036 79.6555 96.8993C79.3201 95.8908 78.9847 94.8822 78.8409 93.8737L70.2164 91.9286V87.8224L78.8409 85.0129L79.4878 81.7711L73.4506 75.2876L75.6067 71.6136L83.5844 73.5587C84.4469 72.262 85.5249 71.1814 86.603 70.1009L86.603 70.1008L84.2313 62.1045L88.5435 59.5111L94.3651 64.914C94.6789 64.8091 95.0055 64.6916 95.3416 64.5705L95.3418 64.5704C96.3912 64.1926 97.5343 63.781 98.6774 63.6173L101.265 55.1887H106.224L108.164 63.8334C109.674 64.0495 110.967 64.4817 112.261 64.914L112.261 64.914L117.22 58.8627L121.748 61.0239L120.023 69.2363C121.317 70.1008 122.395 71.1814 123.473 72.4781L130.588 69.4525C130.588 69.4525 133.391 73.1264 133.391 73.5587C133.391 73.7293 131.375 75.9205 129.359 78.1116C128.822 78.6959 128.284 79.2801 127.785 79.8261C128.432 81.1228 128.863 82.4195 129.079 83.7162L136.625 85.4451ZM88.5435 88.6869C88.5435 97.3316 95.4432 104.247 104.068 104.247C112.477 104.247 119.592 97.3316 119.592 88.6869C119.592 80.0422 112.692 73.1264 104.068 73.1264C95.4432 73.1264 88.5435 80.0422 88.5435 88.6869ZM731.893 108.198C731 106.866 725.194 105.09 718.719 103.98C712.021 102.87 703.982 102.426 703.982 102.426L696.167 95.7648C696.167 95.7648 694.604 98.2071 694.158 99.3173C693.811 99.8919 692.447 100.942 691.305 101.822L691.305 101.823C690.241 102.642 689.369 103.314 689.692 103.314C690.362 103.314 691.032 103.536 692.371 104.424C689.245 104.424 682.547 105.534 680.091 105.978C677.635 106.422 675.402 104.868 675.402 104.868L673.392 105.756L674.509 107.088H669.82C668.927 107.088 665.577 104.868 663.568 103.536C661.558 102.426 658.655 102.426 658.655 102.426V107.31C658.655 107.381 658.769 107.542 658.93 107.771C659.276 108.262 659.843 109.067 659.995 109.975C660.146 111.026 659.582 112.483 658.994 114.002C658.713 114.73 658.426 115.472 658.209 116.191C661.112 116.635 666.694 114.637 666.694 114.637C666.694 114.637 668.257 113.749 670.49 113.527C672.722 113.527 675.848 113.749 675.848 113.749L674.062 114.193C674.062 114.193 674.509 119.744 675.178 120.41C675.625 121.076 676.741 120.632 676.741 120.632C676.741 120.632 680.537 119.3 683.217 117.524C685.896 115.747 686.789 116.413 686.789 116.413L693.934 117.08C693.934 117.08 692.818 120.632 692.818 122.186C692.818 123.5 693.616 122.909 694.268 122.427C694.387 122.339 694.501 122.255 694.604 122.186C695.274 121.742 697.284 119.744 697.284 119.744C697.284 119.744 697.73 120.854 697.954 120.632C698.177 120.41 699.517 119.078 700.186 117.968C703.536 118.412 710.681 117.302 713.137 116.857C713.584 117.524 712.914 119.078 712.914 119.078C712.914 119.078 712.244 120.41 713.584 119.966C714.923 119.522 717.379 115.747 717.379 115.747C717.379 115.747 728.544 113.305 730.33 112.861C732.116 112.417 733.009 110.641 733.009 110.641H731.223L733.009 109.975C733.152 109.975 733.021 109.793 732.673 109.312C732.478 109.042 732.214 108.677 731.893 108.198ZM656.555 93.1986C654.459 92.3136 652.183 91.3525 649.276 90.4362C640.122 87.5499 629.627 92.6565 629.627 92.6565C629.627 92.6565 629.627 86.6617 631.86 85.9957C639.898 83.3313 643.694 83.5533 649.5 84.4415C651.783 84.7908 654.482 85.8616 657.431 87.0322C661.98 88.8376 667.128 90.8803 672.275 90.8803C676.3 90.8803 680.589 89.3521 684.989 87.7847C689.621 86.1348 694.374 84.4415 699.069 84.4415C703.827 84.4415 708.465 86.181 712.919 87.8517C717.035 89.3953 720.994 90.8803 724.747 90.8803C729.813 90.8803 735.817 88.7344 741.057 86.8618C743.9 85.8457 746.518 84.9101 748.638 84.4415C756.23 83.3313 762.929 82.4432 768.288 87.1058C768.957 87.5499 769.627 92.8785 769.627 92.8785C769.627 92.8785 759.133 89.9922 757.347 89.7701C751.22 89.7701 745.513 91.6743 740.007 93.5111C734.878 95.2223 729.924 96.875 724.97 96.875C720.434 96.875 715.535 95.1281 710.84 93.4542C706.522 91.9143 702.376 90.4362 698.846 90.4362C695.506 90.4362 691.89 91.7136 687.937 93.1104C683.17 94.7949 677.911 96.653 672.052 96.653C664.736 96.653 661.062 95.1015 656.555 93.1986ZM687.236 64.2368C688.252 63.2261 689.269 63.3657 690.188 63.4919C690.48 63.532 690.762 63.5708 691.032 63.5708C692.148 63.5708 694.828 64.4589 695.274 65.125C695.721 65.791 695.944 66.6791 694.604 67.3452C693.265 68.0113 691.032 70.4536 691.925 71.3417C692.08 71.4955 692.268 71.7559 692.514 72.0962C693.688 73.7212 696.181 77.1702 702.643 79.5568C710.458 82.4431 714.477 83.5533 714.7 83.1092C714.923 82.6652 704.429 71.7858 704.429 71.7858C704.429 71.7858 703.312 71.1197 703.982 70.0096C704.652 68.8994 706.885 62.4606 706.885 62.2386C706.885 62.0166 708.671 61.1284 710.011 61.1284C711.351 61.1284 717.156 60.2403 718.049 59.7963C718.942 59.3522 718.273 58.0201 718.049 57.576C717.826 57.1319 717.379 56.4659 715.593 56.9099C713.807 57.354 710.681 57.354 709.788 57.354C708.895 57.354 706.215 56.9099 706.215 56.9099L701.749 50.6931C701.749 50.6931 701.08 49.361 700.186 48.9169C699.924 48.7862 699.583 48.6555 699.228 48.5191C698.377 48.1922 697.441 47.8327 697.284 47.3627C697.06 46.6966 697.73 44.6984 698.623 44.0323C699.517 43.3662 703.536 39.8138 702.866 38.7036C702.419 38.0375 689.915 45.3645 687.682 50.4711C686.566 52.9134 688.576 53.8015 689.692 54.0236C690.808 54.2456 692.818 55.3557 693.041 56.6879C693.265 58.0201 692.818 59.5743 691.255 59.5743C689.692 59.5743 688.352 59.7963 687.236 61.1284C686.343 62.4606 686.343 62.9047 686.343 62.9047C686.343 62.9047 685.003 63.7928 685.003 64.2368C685.003 64.6809 685.896 65.569 687.236 64.2368ZM760.025 96.875C759.802 97.9851 758.685 100.205 758.685 100.205C758.685 100.205 759.802 98.4291 761.365 99.0952C762.928 99.7613 758.685 121.742 758.685 121.742C758.685 121.742 756.676 126.627 755.336 128.181C753.996 129.735 743.502 143.279 743.502 143.279C743.502 143.279 741.939 145.277 736.357 146.609C730.775 147.941 726.532 149.496 726.532 149.496C726.532 149.496 723.853 150.384 721.843 153.714C719.834 157.045 716.484 163.927 716.484 163.927C716.484 163.927 716.261 165.482 713.582 165.704C710.902 165.926 697.505 166.592 681.875 165.704C680.089 165.26 679.196 164.149 678.749 162.817C678.303 161.485 674.73 153.714 674.06 153.048C673.964 152.953 673.846 152.817 673.702 152.652C672.839 151.661 671.062 149.622 667.808 149.052C664.012 148.385 656.421 146.165 656.421 146.165C656.421 146.165 654.188 145.499 651.062 141.947C648.886 139.474 644.871 133.99 642.104 130.21C640.896 128.559 639.926 127.234 639.451 126.627C637.888 124.628 637.218 121.52 636.548 118.19C635.878 114.859 633.422 100.427 633.422 100.427C633.422 100.427 633.645 97.541 635.432 99.3173C636.357 100.237 636.204 99.9067 635.873 99.1896C635.564 98.5215 635.101 97.5175 635.208 96.875C635.208 96.7792 635.207 96.6835 635.206 96.5884C635.191 95.3594 635.178 94.2266 637.665 94.4326C639.228 94.6547 641.014 95.7648 642.354 100.427C643.693 105.09 647.043 116.413 647.043 116.413C647.043 116.413 643.917 117.524 643.47 118.412C643.023 119.3 642.13 122.186 643.247 123.296C644.363 124.406 657.76 138.394 657.76 138.394L659.1 137.728L645.033 122.408C645.033 122.408 643.693 119.078 646.819 118.856C649.945 118.634 650.838 119.3 652.178 120.41C653.518 121.52 665.129 130.179 665.129 130.179C665.129 130.179 667.585 131.289 670.264 131.289C672.944 131.289 685.448 132.621 688.35 134.842C688.451 134.919 688.556 134.998 688.664 135.08C691.664 137.362 697.274 141.627 697.059 151.272C699.068 142.169 701.301 136.84 705.543 134.842C709.786 132.843 717.824 131.733 722.29 131.733C726.755 131.733 728.765 130.845 730.551 129.291C732.338 127.737 743.725 119.522 743.725 119.522C743.725 119.522 745.511 118.634 746.851 119.078C748.191 119.522 750.647 120.632 749.977 121.076C749.307 121.52 735.687 136.396 735.687 136.396L736.357 138.172L750.2 124.184C750.2 124.184 751.987 123.074 751.54 119.522C751.094 115.969 747.521 116.635 747.521 116.635L753.326 96.875C753.326 96.875 754.889 93.7666 756.676 93.7666C758.462 93.7666 760.248 95.7648 760.025 96.875Z" fill="white"/>
</svg>
