<svg width="864" height="586" viewBox="0 0 864 586" fill="none" xmlns="http://www.w3.org/2000/svg">
<path d="M43.2033 13.1047C62.9101 1.75704 84.8907 -2.02552 106.113 1.00053C95.502 28.235 96.26 59.2521 112.935 86.4866C126.171 110.266 148.074 125.971 172.591 132.091C200.284 134.057 226.58 147.849 243.839 170.797C261.8 189.352 286.578 201.034 313.957 201.034C340.01 201.034 364.297 190.457 381.628 173.963C389.952 160.835 401.552 149.516 416.032 141.358C460.694 116.193 516.996 129.296 545.245 170.924C563.196 189.405 587.924 201.034 615.241 201.034C641.217 201.034 665.438 190.519 682.759 174.108C700.11 146.695 730.744 128.409 765.485 128.409C819.299 128.409 863.261 172.287 863.261 225.999C863.261 280.468 819.299 324.346 765.485 323.589C736.39 323.589 710.175 310.763 692.23 290.492C692.159 290.586 692.087 290.68 692.015 290.773C691.941 290.869 691.868 290.964 691.794 291.06C673.603 268.364 646.317 253.99 615.241 253.99C592.057 252.862 570.982 260.575 554.219 273.99C549.275 296.763 552.345 321.777 565.84 343.817C580.999 371.052 607.527 387.695 636.329 391.478C636.177 391.873 636.022 392.267 635.865 392.66C680.652 401.54 714.638 441.164 714.638 488.391C714.638 542.86 670.676 586.738 616.862 585.981C563.047 585.981 519.086 542.104 519.086 488.391C519.086 471.966 523.197 456.461 530.443 442.849C536.572 418.638 533.937 392.572 520.363 369.539C505.714 344.684 481.865 329.012 455.654 323.206C431.076 321.009 407.686 309.654 390.954 290.483C390.806 290.676 390.659 290.868 390.511 291.06C372.32 268.364 345.033 253.99 313.957 253.99C290.626 252.854 269.43 260.674 252.616 274.247C242.983 292.818 227.3 308.495 206.728 317.972C158.219 340.668 99.8563 319.485 77.1177 270.312C64.9199 244.339 65.3726 215.537 76.0186 190.911C83.9994 165.219 82.0465 136.962 67.4578 112.208C52.2987 86.4866 27.2863 70.5998 0 65.3042C7.57952 44.1218 21.9807 25.209 43.2033 13.1047Z" fill="#EAF1F8"/>
<path fill-rule="evenodd" clip-rule="evenodd" d="M438.541 208.054H436.198V213.256H446.353L444.53 246.815C447.276 246.108 450.082 245.098 452.928 244.075C458.448 242.09 464.118 240.052 469.787 240.052C475.148 240.052 480.509 242.102 485.656 244.071L485.662 244.073L485.919 244.171C486.184 244.273 486.448 244.374 486.712 244.474L485.15 212.476H493.222V207.793H489.316L512.751 193.745C512.751 193.745 515.094 191.664 517.437 187.762C519.781 183.86 517.698 175.795 511.188 165.389C513.851 172.16 510.664 179.605 509.156 183.128L509.155 183.13C509.041 183.396 508.936 183.64 508.845 183.86C507.543 186.982 510.407 190.103 510.407 190.103L488.014 202.851V195.306H477.078L474.995 149H469.006L466.142 195.566H446.874V187.762H434.375V195.566H438.541V208.054ZM464.58 238.491C461.976 238.751 458.591 240.052 458.591 240.052L464.58 234.068L469.267 238.231C469.267 238.231 467.183 238.231 464.58 238.491ZM474.995 238.491C472.391 235.889 467.704 230.946 467.704 230.946C467.965 231.207 480.723 230.946 480.723 230.946L481.244 240.052C481.177 240.052 481.021 239.999 480.751 239.908C479.98 239.647 478.273 239.069 474.995 238.491ZM479.942 213.517L480.723 224.703L467.704 213.517H479.942ZM451.821 212.996H462.236L451.04 222.882L451.821 212.996ZM464.84 216.378L478.12 227.304H451.04L464.84 216.378ZM450.259 230.946H461.976L449.477 243.954L450.259 230.946Z" fill="white"/>
<path d="M550.507 247.336C544.258 241.873 536.446 242.913 527.593 244.214C525.12 244.763 522.067 245.859 518.751 247.05C512.641 249.244 505.64 251.758 499.732 251.758C495.355 251.758 490.739 250.018 485.939 248.21C480.745 246.252 475.337 244.214 469.788 244.214C464.313 244.214 458.77 246.198 453.369 248.131C448.238 249.968 443.235 251.758 438.542 251.758C432.539 251.758 426.537 249.365 421.232 247.25C417.792 245.878 414.646 244.623 411.983 244.214C405.213 243.173 398.703 243.173 389.329 246.295C386.726 247.076 389.069 254.1 389.069 254.1C389.069 254.1 401.307 248.116 411.983 251.498C415.372 252.572 418.026 253.698 420.471 254.735C425.726 256.964 430.011 258.782 438.542 258.782C445.375 258.782 451.507 256.605 457.067 254.631C461.677 252.995 465.893 251.498 469.788 251.498C473.905 251.498 478.679 253.17 483.653 254.912C489.06 256.806 494.703 258.782 499.992 258.782C505.769 258.782 511.546 256.846 517.527 254.841C523.948 252.689 530.604 250.458 537.748 250.458C539.831 250.718 549.726 254.1 549.726 254.1C549.726 254.1 551.288 247.856 550.507 247.336Z" fill="white"/>
<path fill-rule="evenodd" clip-rule="evenodd" d="M482.547 267.107V258.002L487.494 259.563L489.317 289.74H483.849L483.068 272.05H448.176L447.395 289.74H441.667L443.49 261.384L448.437 260.343V264.246L455.728 257.742C455.728 257.742 465.883 253.319 470.83 254.62C474.215 258.002 482.547 267.107 482.547 267.107ZM461.716 258.002L451.822 267.888H476.819L467.705 258.002H461.716Z" fill="white"/>
<path d="M161.934 273.526L170.127 267.691L168.402 262.936L158.268 263.8C157.837 262.72 157.19 261.639 156.544 260.559L163.228 253.211L158.7 248.888L151.369 252.346C150.938 251.806 150.506 251.32 150.075 250.833C149.644 250.347 149.213 249.861 148.781 249.321L153.309 239.163L149.428 235.921L140.588 242.189C140.049 241.865 139.564 241.486 139.079 241.108C138.594 240.73 138.109 240.352 137.57 240.028L140.157 229.654L135.413 227.06L128.083 235.273C127.005 234.841 125.926 234.408 124.633 234.192V223.819C124.848 223.17 119.674 222.306 119.674 222.306L114.93 232.247C113.636 232.031 112.558 232.031 111.265 232.031C109.971 227.709 108.462 222.306 108.462 221.658C108.462 220.793 101.993 221.658 101.993 221.658L100.7 232.68L97.4655 233.328L92.2908 224.251L89.0566 225.548C87.9785 238.299 92.5064 252.562 92.5064 252.562C97.6811 249.753 103.503 248.24 109.755 248.24C130.454 248.24 147.272 265.097 147.272 285.844C147.272 290.599 146.41 295.137 144.685 299.244C156.975 301.189 167.324 300.54 170.774 300.324C170.774 298.163 170.774 295.137 171.205 295.137C171.636 295.137 166.893 292.544 163.228 290.815C163.443 289.518 163.443 288.222 163.443 287.141L172.068 284.115V278.496L162.581 276.119C162.365 275.687 162.149 274.606 161.934 273.526Z" fill="white"/>
<path fill-rule="evenodd" clip-rule="evenodd" d="M204.625 213.445V218.2L197.51 220.577C197.294 222.09 196.863 223.603 196.432 225.115L202.038 231.167L199.666 235.273L192.12 233.328L188.886 236.57L191.042 243.485L186.514 246.295L181.555 241.108C179.83 241.756 178.105 242.405 176.38 242.621L175.302 249.753H169.696L167.755 242.621L163.228 241.324L157.837 247.159L153.741 244.566L155.681 236.786L153.094 234.192L145.332 236.786L141.882 232.247L148.135 226.412C147.991 225.908 147.823 225.404 147.655 224.899C147.32 223.891 146.985 222.882 146.841 221.874L138.216 219.929V215.822L146.841 213.013L147.488 209.771L141.451 203.288L143.607 199.614L151.584 201.559C152.447 200.262 153.525 199.181 154.603 198.101L152.231 190.104L156.544 187.511L162.365 192.914C162.679 192.809 163.005 192.692 163.342 192.571C164.391 192.193 165.534 191.781 166.677 191.617L169.265 183.189H174.224L176.164 191.833C177.674 192.05 178.967 192.482 180.261 192.914L185.22 186.863L189.748 189.024L188.023 197.236C189.317 198.101 190.395 199.181 191.473 200.478L198.588 197.452C198.588 197.452 201.391 201.126 201.391 201.559C201.391 201.729 199.375 203.92 197.359 206.112C196.822 206.696 196.284 207.28 195.785 207.826C196.432 209.123 196.863 210.419 197.079 211.716L204.625 213.445ZM156.544 216.687C156.544 225.332 163.443 232.247 172.068 232.247C180.477 232.247 187.592 225.332 187.592 216.687C187.592 208.042 180.692 201.126 172.068 201.126C163.443 201.126 156.544 208.042 156.544 216.687Z" fill="white"/>
<path d="M799.893 236.198C799 234.866 793.194 233.09 786.719 231.98C780.021 230.87 771.982 230.426 771.982 230.426L764.167 223.765C764.167 223.765 762.604 226.207 762.158 227.317C761.811 227.892 760.447 228.942 759.305 229.822C758.241 230.642 757.369 231.314 757.692 231.314C758.362 231.314 759.032 231.536 760.371 232.424C757.245 232.424 750.547 233.534 748.091 233.978C745.635 234.422 743.402 232.868 743.402 232.868L741.392 233.756L742.509 235.088H737.82C736.927 235.088 733.577 232.868 731.568 231.536C729.558 230.426 726.655 230.426 726.655 230.426V235.31C726.655 235.381 726.769 235.542 726.93 235.771C727.276 236.262 727.843 237.067 727.995 237.975C728.146 239.026 727.582 240.483 726.994 242.002C726.713 242.73 726.426 243.472 726.209 244.191C729.112 244.635 734.694 242.637 734.694 242.637C734.694 242.637 736.257 241.749 738.49 241.527C740.722 241.527 743.848 241.749 743.848 241.749L742.062 242.193C742.062 242.193 742.509 247.744 743.178 248.41C743.625 249.076 744.741 248.632 744.741 248.632C744.741 248.632 748.537 247.3 751.217 245.524C753.896 243.747 754.789 244.413 754.789 244.413L761.934 245.08C761.934 245.08 760.818 248.632 760.818 250.186C760.818 251.5 761.616 250.909 762.268 250.427C762.387 250.339 762.501 250.255 762.604 250.186C763.274 249.742 765.284 247.744 765.284 247.744C765.284 247.744 765.73 248.854 765.954 248.632C766.177 248.41 767.517 247.078 768.186 245.968C771.536 246.412 778.681 245.302 781.137 244.857C781.584 245.524 780.914 247.078 780.914 247.078C780.914 247.078 780.244 248.41 781.584 247.966C782.923 247.522 785.379 243.747 785.379 243.747C785.379 243.747 796.544 241.305 798.33 240.861C800.116 240.417 801.009 238.641 801.009 238.641H799.223L801.009 237.975C801.152 237.975 801.021 237.793 800.673 237.312C800.478 237.042 800.214 236.677 799.893 236.198Z" fill="white"/>
<path d="M724.555 221.199C722.459 220.314 720.183 219.353 717.276 218.436C708.122 215.55 697.627 220.656 697.627 220.656C697.627 220.656 697.627 214.662 699.86 213.996C707.898 211.331 711.694 211.553 717.5 212.441C719.783 212.791 722.482 213.862 725.431 215.032C729.98 216.838 735.128 218.88 740.275 218.88C744.3 218.88 748.589 217.352 752.989 215.785C757.621 214.135 762.374 212.441 767.069 212.441C771.827 212.441 776.465 214.181 780.919 215.852C785.035 217.395 788.994 218.88 792.747 218.88C797.813 218.88 803.817 216.734 809.057 214.862C811.9 213.846 814.518 212.91 816.638 212.441C824.23 211.331 830.929 210.443 836.288 215.106C836.957 215.55 837.627 220.879 837.627 220.879C837.627 220.879 827.133 217.992 825.347 217.77C819.22 217.77 813.513 219.674 808.007 221.511C802.878 223.222 797.924 224.875 792.97 224.875C788.434 224.875 783.535 223.128 778.84 221.454C774.522 219.914 770.376 218.436 766.846 218.436C763.506 218.436 759.89 219.714 755.937 221.11C751.17 222.795 745.911 224.653 740.052 224.653C732.736 224.653 729.062 223.101 724.555 221.199Z" fill="white"/>
<path d="M755.236 192.237C756.252 191.226 757.269 191.366 758.188 191.492C758.48 191.532 758.762 191.571 759.032 191.571C760.148 191.571 762.828 192.459 763.274 193.125C763.721 193.791 763.944 194.679 762.604 195.345C761.265 196.011 759.032 198.454 759.925 199.342C760.08 199.496 760.268 199.756 760.514 200.096C761.688 201.721 764.181 205.17 770.643 207.557C778.458 210.443 782.477 211.553 782.7 211.109C782.923 210.665 772.429 199.786 772.429 199.786C772.429 199.786 771.312 199.12 771.982 198.01C772.652 196.899 774.885 190.461 774.885 190.239C774.885 190.017 776.671 189.128 778.011 189.128C779.351 189.128 785.156 188.24 786.049 187.796C786.942 187.352 786.273 186.02 786.049 185.576C785.826 185.132 785.379 184.466 783.593 184.91C781.807 185.354 778.681 185.354 777.788 185.354C776.895 185.354 774.215 184.91 774.215 184.91L769.749 178.693C769.749 178.693 769.08 177.361 768.186 176.917C767.924 176.786 767.583 176.655 767.228 176.519C766.377 176.192 765.441 175.833 765.284 175.363C765.06 174.697 765.73 172.698 766.623 172.032C767.517 171.366 771.536 167.814 770.866 166.704C770.419 166.038 757.915 173.364 755.682 178.471C754.566 180.913 756.576 181.802 757.692 182.024C758.808 182.246 760.818 183.356 761.041 184.688C761.265 186.02 760.818 187.574 759.255 187.574C757.692 187.574 756.352 187.796 755.236 189.128C754.343 190.461 754.343 190.905 754.343 190.905C754.343 190.905 753.003 191.793 753.003 192.237C753.003 192.681 753.896 193.569 755.236 192.237Z" fill="white"/>
<path d="M828.025 224.875C827.802 225.985 826.685 228.205 826.685 228.205C826.685 228.205 827.802 226.429 829.365 227.095C830.928 227.761 826.685 249.742 826.685 249.742C826.685 249.742 824.676 254.627 823.336 256.181C821.996 257.735 811.502 271.279 811.502 271.279C811.502 271.279 809.939 273.277 804.357 274.609C798.775 275.941 794.532 277.496 794.532 277.496C794.532 277.496 791.853 278.384 789.843 281.714C787.834 285.045 784.484 291.927 784.484 291.927C784.484 291.927 784.261 293.482 781.582 293.704C778.902 293.926 765.505 294.592 749.875 293.704C748.089 293.26 747.196 292.149 746.749 290.817C746.303 289.485 742.73 281.714 742.06 281.048C741.964 280.953 741.846 280.817 741.702 280.652C740.839 279.661 739.062 277.622 735.808 277.052C732.012 276.385 724.421 274.165 724.421 274.165C724.421 274.165 722.188 273.499 719.062 269.947C716.886 267.474 712.871 261.99 710.104 258.21C708.896 256.559 707.926 255.234 707.451 254.627C705.888 252.628 705.218 249.52 704.548 246.19C703.878 242.859 701.422 228.427 701.422 228.427C701.422 228.427 701.645 225.541 703.432 227.317C704.357 228.237 704.204 227.907 703.873 227.19C703.564 226.521 703.101 225.517 703.208 224.875C703.208 224.779 703.207 224.684 703.206 224.588C703.191 223.359 703.178 222.227 705.665 222.433C707.228 222.655 709.014 223.765 710.354 228.427C711.693 233.09 715.043 244.413 715.043 244.413C715.043 244.413 711.917 245.524 711.47 246.412C711.023 247.3 710.13 250.186 711.247 251.296C712.363 252.406 725.76 266.394 725.76 266.394L727.1 265.728L713.033 250.408C713.033 250.408 711.693 247.078 714.819 246.856C717.945 246.634 718.838 247.3 720.178 248.41C721.518 249.52 733.129 258.179 733.129 258.179C733.129 258.179 735.585 259.289 738.264 259.289C740.944 259.289 753.448 260.621 756.35 262.842C756.451 262.919 756.556 262.998 756.664 263.08C759.664 265.362 765.274 269.627 765.059 279.272C767.068 270.169 769.301 264.84 773.543 262.842C777.786 260.843 785.824 259.733 790.29 259.733C794.755 259.733 796.765 258.845 798.551 257.291C800.338 255.737 811.725 247.522 811.725 247.522C811.725 247.522 813.511 246.634 814.851 247.078C816.191 247.522 818.647 248.632 817.977 249.076C817.307 249.52 803.687 264.396 803.687 264.396L804.357 266.172L818.2 252.184C818.2 252.184 819.987 251.074 819.54 247.522C819.094 243.969 815.521 244.635 815.521 244.635L821.326 224.875C821.326 224.875 822.889 221.767 824.676 221.767C826.462 221.767 828.248 223.765 828.025 224.875Z" fill="white"/>
</svg>
