<svg width="265" height="329" viewBox="0 0 265 329" fill="none" xmlns="http://www.w3.org/2000/svg">
<path fill-rule="evenodd" clip-rule="evenodd" d="M221.12 13.9692C201.413 2.62154 179.432 -1.16102 158.21 1.86504C168.821 29.0995 168.063 60.1166 151.388 87.3511C136.796 113.567 111.67 129.969 84.121 134.533C83.5842 134.613 83.0483 134.697 82.5132 134.786C81.9757 134.865 81.4374 134.941 80.8983 135.011C80.905 135.029 80.9116 135.046 80.9183 135.063C50.7748 140.569 23.5539 160.171 9.6509 190.237C-13.0877 238.654 8.13502 296.906 57.4019 319.601C105.911 342.296 164.273 321.114 187.012 271.941C198.836 246.764 198.773 218.928 189.061 194.815C189.136 194.802 189.211 194.789 189.286 194.776C180.19 168.298 181.706 138.794 196.865 113.073C212.024 87.3511 237.037 71.4643 264.323 66.1687C256.743 44.9863 242.342 26.0735 221.12 13.9692Z" fill="#EAF1F8"/>
</svg>
