<?xml version="1.0" standalone="no"?>
<!DOCTYPE svg PUBLIC "-//W3C//DTD SVG 20010904//EN"
 "http://www.w3.org/TR/2001/REC-SVG-20010904/DTD/svg10.dtd">
<svg version="1.0" xmlns="http://www.w3.org/2000/svg"
 width="92.000000pt" height="92.000000pt" viewBox="0 0 92.000000 92.000000"
 preserveAspectRatio="xMidYMid meet">
<metadata>
Created by potrace 1.11, written by Peter Selinger 2001-2013
</metadata>
<g transform="translate(0.000000,92.000000) scale(0.100000,-0.100000)"
fill="#000000" stroke="none">
<path d="M229 853 c-83 -51 -67 -167 27 -203 63 -25 84 -43 95 -83 12 -47 2
-64 -46 -73 -43 -8 -64 0 -106 37 -39 35 -67 44 -112 35 -53 -10 -82 -48 -82
-108 0 -43 4 -53 33 -79 50 -45 114 -39 171 17 47 47 148 37 145 -13 -3 -61
-25 -84 -106 -117 -126 -50 -77 -237 56 -212 67 13 102 68 87 137 -16 71 7
133 54 145 54 14 88 -47 79 -144 -6 -67 -6 -70 24 -103 27 -30 36 -34 81 -34
42 0 55 5 78 28 23 22 28 36 28 76 0 60 -19 84 -92 116 -54 24 -79 52 -87 98
-3 20 0 30 16 38 52 28 98 18 155 -31 76 -67 183 -17 183 85 0 29 -8 45 -34
71 -48 48 -98 47 -155 0 -50 -42 -72 -50 -117 -42 -41 8 -54 29 -43 69 10 34
46 77 65 77 8 0 29 7 47 16 82 39 90 148 15 194 -51 31 -94 26 -135 -15 l-36
-36 7 -78 c7 -78 7 -80 -22 -112 -23 -26 -34 -31 -54 -26 -50 13 -66 62 -55
162 10 92 -87 156 -164 108z"/>
</g>
</svg>
